<svg width="24" height="24" viewBox="0 0 24 24" fill="none" xmlns="http://www.w3.org/2000/svg">
<path d="M21 12C21 7.02944 16.9706 3 12 3C7.02944 3 3 7.02944 3 12C3 16.9706 7.02944 21 12 21C16.9706 21 21 16.9706 21 12ZM15.9238 6.81152C16.2832 6.69175 16.6794 6.78491 16.9473 7.05273C17.2151 7.32057 17.3083 7.71684 17.1885 8.07617L15.0684 14.4365C14.9688 14.7348 14.7348 14.9688 14.4365 15.0684L8.07617 17.1885C7.71684 17.3083 7.32057 17.2151 7.05273 16.9473C6.78491 16.6794 6.69175 16.2832 6.81152 15.9238L8.93164 9.56348L8.97461 9.45508C9.09015 9.20885 9.3023 9.01881 9.56348 8.93164L15.9238 6.81152ZM10.6709 10.6709L9.3418 14.6582L13.3291 13.3291L14.6582 9.3418L10.6709 10.6709ZM23 12C23 18.0751 18.0751 23 12 23C5.92487 23 1 18.0751 1 12C1 5.92487 5.92487 1 12 1C18.0751 1 23 5.92487 23 12Z" fill="white"/>
</svg>
