<svg width="24" height="24" viewBox="0 0 24 24" fill="none" xmlns="http://www.w3.org/2000/svg">
<path d="M21 12C21 7.02944 16.9706 3 12 3C7.02944 3 3 7.02944 3 12C3 16.9706 7.02944 21 12 21C16.9706 21 21 16.9706 21 12ZM23 12C23 18.0751 18.0751 23 12 23C5.92487 23 1 18.0751 1 12C1 5.92487 5.92487 1 12 1C18.0751 1 23 5.92487 23 12Z" fill="white"/>
<path d="M16.293 8.29295C16.6835 7.90243 17.3165 7.90243 17.707 8.29295C18.0975 8.68348 18.0975 9.31649 17.707 9.70702L11.707 15.707C11.3165 16.0975 10.6835 16.0975 10.293 15.707L7.29295 12.707C6.90243 12.3165 6.90243 11.6835 7.29295 11.293C7.68348 10.9024 8.31649 10.9024 8.70702 11.293L11 13.5859L16.293 8.29295Z" fill="white"/>
</svg>
