<svg width="24" height="24" viewBox="0 0 24 24" fill="none" xmlns="http://www.w3.org/2000/svg">
<path d="M17.9998 17.0001C19.1043 17.0001 19.9998 17.8956 19.9998 19.0001C19.9997 20.1046 19.1043 21.0001 17.9998 21.0001H5.99977C4.89533 21 3.99984 20.1046 3.99977 19.0001C3.99977 17.8956 4.89529 17.0002 5.99977 17.0001H17.9998Z" fill="white"/>
<path d="M11.5877 2.72083C11.7746 2.39376 12.2424 2.3832 12.4441 2.7013L16.1453 8.53821C16.3026 8.78618 16.6388 8.84589 16.8718 8.66712L19.741 6.46595C20.1288 6.16842 20.6691 6.54674 20.5222 7.01282L17.9998 15.0001H5.99977L3.44411 6.9054C3.30028 6.44994 3.81542 6.07143 4.2068 6.34485L7.55055 8.68567C7.79154 8.85436 8.12624 8.77989 8.27223 8.52454L11.5877 2.72083Z" fill="white"/>
</svg>
