<svg width="24" height="24" viewBox="0 0 24 24" fill="none" xmlns="http://www.w3.org/2000/svg">
<path d="M17.293 5.29295C17.6835 4.90243 18.3165 4.90243 18.707 5.29295C19.0975 5.68348 19.0975 6.31649 18.707 6.70702L13.414 12L18.707 17.293C19.0975 17.6835 19.0975 18.3165 18.707 18.707C18.3165 19.0975 17.6835 19.0975 17.293 18.707L12 13.414L6.70702 18.707C6.31649 19.0975 5.68348 19.0975 5.29295 18.707C4.90243 18.3165 4.90243 17.6835 5.29295 17.293L10.5859 12L5.29295 6.70702C4.90243 6.31649 4.90243 5.68348 5.29295 5.29295C5.68348 4.90243 6.31649 4.90243 6.70702 5.29295L12 10.5859L17.293 5.29295Z" fill="white"/>
</svg>
