<svg width="24" height="24" viewBox="0 0 24 24" fill="none" xmlns="http://www.w3.org/2000/svg">
<path fill-rule="evenodd" clip-rule="evenodd" d="M6 10C8.20914 10 10 11.7909 10 14C10 15.4154 9.2636 16.6572 8.1543 17.3682L9.45801 21.7129C9.59835 22.1812 9.37928 22.6821 8.94043 22.8975C8.50126 23.1128 7.97082 22.9791 7.68652 22.5811L7.62793 22.499C6.83029 21.3823 5.16972 21.3823 4.37207 22.499L4.31348 22.5811C4.02918 22.9791 3.49874 23.1128 3.05957 22.8975C2.6207 22.6821 2.40164 22.1812 2.54199 21.7129L3.84473 17.3682C2.73581 16.6571 2 15.4151 2 14C2 11.7909 3.79086 10 6 10ZM6 12C4.89543 12 4 12.8954 4 14C4 15.1046 4.89543 16 6 16C7.10457 16 8 15.1046 8 14C8 12.8954 7.10457 12 6 12Z" fill="white"/>
<path fill-rule="evenodd" clip-rule="evenodd" d="M14.04 1.00098C14.4745 1.00531 14.904 1.09258 15.3057 1.25879C15.7199 1.43023 16.0965 1.68159 16.4131 1.99902L20 5.58594L20.1162 5.70703C20.3799 5.99708 20.591 6.33138 20.7412 6.69434C20.9125 7.10835 21.0008 7.55195 21 8V20C21 20.7956 20.6837 21.5585 20.1211 22.1211C19.5585 22.6837 18.7957 23 18 23H13C12.4477 23 12 22.5523 12 22C12 21.4477 12.4477 21 13 21H18C18.2652 21 18.5195 20.8946 18.707 20.707C18.8946 20.5195 19 20.2652 19 20V9H15C14.4696 9 13.961 8.78913 13.5859 8.41406C13.2109 8.03899 13 7.53043 13 7V3H6C5.73478 3 5.4805 3.10543 5.29297 3.29297C5.10543 3.4805 5 3.73479 5 4V7.2998C5 7.85209 4.55228 8.2998 4 8.2998C3.44772 8.2998 3 7.85209 3 7.2998V4C3 3.20435 3.3163 2.44151 3.87891 1.87891C4.44152 1.3163 5.20435 1 6 1H14C14.0134 1 14.0268 1.00045 14.04 1.00098ZM15 7H18.5859L15 3.41406V7Z" fill="white"/>
</svg>
