<svg width="24" height="24" viewBox="0 0 24 24" fill="none" xmlns="http://www.w3.org/2000/svg">
<path d="M12 0C18.6273 0 23.9998 5.37275 24 12C24 18.6274 18.6274 24 12 24C5.37258 24 0 18.6274 0 12C0.000197911 5.37275 5.37271 0 12 0ZM12.0762 5.62207L12.0684 5.62305L11.7607 5.65332L11.7539 5.6543C8.31024 6.07756 5.86059 9.21348 6.2832 12.6572L6.28418 12.6641L6.33008 12.9688L6.33105 12.9766C6.88453 16.1449 9.75475 18.3883 12.9629 18.1592L12.9707 18.1582L13.2793 18.1279H13.2861C15.1249 17.902 16.6788 16.9006 17.6641 15.4951L17.834 15.252L15.415 13.7617L15.2617 13.9639C14.7536 14.6356 14.0021 15.1219 13.1182 15.2773L12.9395 15.3037C11.1136 15.5276 9.44593 14.277 9.13281 12.4854L9.10645 12.3105C8.87525 10.4258 10.2161 8.70831 12.1006 8.47656L12.3467 8.45508C13.5733 8.3924 14.7026 8.99071 15.3613 9.95605L15.5371 10.2148L17.5127 8.51562L17.7119 8.34473L17.5547 8.13477C16.3109 6.47059 14.2741 5.4648 12.0762 5.62207Z" fill="white"/>
</svg>
