<svg width="24" height="24" viewBox="0 0 24 24" fill="none" xmlns="http://www.w3.org/2000/svg">
<g filter="url(#filter0_i_496_7469)">
<g filter="url(#filter1_i_496_7469)">
<circle cx="12.0007" cy="11.9998" r="11.2169" transform="rotate(31 12.0007 11.9998)" fill="url(#paint0_linear_496_7469)" stroke="#FFA614" stroke-width="1.12169"/>
<g filter="url(#filter2_d_496_7469)">
<path d="M12.0961 5.90264C14.1957 5.75222 16.1421 6.71171 17.331 8.30306L15.5929 9.7975C14.8337 8.68485 13.4961 8.02336 12.0671 8.19867C10.0285 8.44899 8.57835 10.3054 8.82845 12.344C9.07889 14.3826 10.935 15.832 12.9736 15.5817C14.014 15.4539 14.8999 14.9077 15.4857 14.1329L17.4347 15.334C16.493 16.6778 15.0089 17.633 13.252 17.8489L12.9438 17.8788C9.87854 18.0982 7.13606 15.955 6.60762 12.9276L6.56226 12.6222C6.15848 9.33192 8.49853 6.33649 11.7889 5.93249L12.0961 5.90264Z" fill="white"/>
<path d="M12.0961 5.90264L12.0761 5.62284L12.069 5.62353L12.0961 5.90264ZM17.331 8.30306L17.5138 8.51569L17.7124 8.34499L17.5557 8.13523L17.331 8.30306ZM15.5929 9.7975L15.3613 9.95556L15.538 10.2146L15.7758 10.0101L15.5929 9.7975ZM12.0671 8.19867L12.033 7.92034L12.033 7.92034L12.0671 8.19867ZM8.82845 12.344L8.55011 12.3781L8.55012 12.3782L8.82845 12.344ZM12.9736 15.5817L13.0078 15.86L13.0078 15.86L12.9736 15.5817ZM15.4857 14.1329L15.6329 13.8942L15.4158 13.7604L15.2621 13.9638L15.4857 14.1329ZM17.4347 15.334L17.6644 15.495L17.8351 15.2514L17.5818 15.0953L17.4347 15.334ZM13.252 17.8489L13.2792 18.1281L13.2862 18.1272L13.252 17.8489ZM12.9438 17.8788L12.9638 18.1586L12.9709 18.1579L12.9438 17.8788ZM6.60762 12.9276L6.33016 12.9688L6.33138 12.9758L6.60762 12.9276ZM6.56226 12.6222L6.28384 12.6564L6.28488 12.6635L6.56226 12.6222ZM11.7889 5.93249L11.7617 5.65329L11.7547 5.65416L11.7889 5.93249ZM12.0961 5.90264L12.1162 6.18234C14.1167 6.03902 15.9724 6.95306 17.1063 8.4709L17.331 8.30306L17.5557 8.13523C16.3119 6.47036 14.2746 5.46542 12.0761 5.62293L12.0961 5.90264ZM17.331 8.30306L17.1482 8.09043L15.4101 9.58487L15.5929 9.7975L15.7758 10.0101L17.5138 8.51569L17.331 8.30306ZM15.5929 9.7975L15.8246 9.63945C15.0088 8.44382 13.5704 7.73171 12.033 7.92034L12.0671 8.19867L12.1013 8.47701C13.4218 8.315 14.6587 8.92588 15.3613 9.95556L15.5929 9.7975ZM12.0671 8.19867L12.033 7.92034C9.84057 8.18953 8.28116 10.1859 8.55011 12.3781L8.82845 12.344L9.10678 12.3098C8.87554 10.4249 10.2164 8.70844 12.1013 8.47701L12.0671 8.19867ZM8.82845 12.344L8.55012 12.3782C8.81945 14.5706 10.8155 16.1292 13.0078 15.86L12.9736 15.5817L12.9395 15.3034C11.0544 15.5348 9.33833 14.1947 9.10678 12.3098L8.82845 12.344ZM12.9736 15.5817L13.0078 15.86C14.1267 15.7225 15.0798 15.1347 15.7094 14.3021L15.4857 14.1329L15.2621 13.9638C14.72 14.6807 13.9012 15.1852 12.9394 15.3034L12.9736 15.5817ZM15.4857 14.1329L15.3386 14.3717L17.2876 15.5728L17.4347 15.334L17.5818 15.0953L15.6329 13.8942L15.4857 14.1329ZM17.4347 15.334L17.2051 15.1731C16.3069 16.4547 14.8924 17.3648 13.2178 17.5705L13.252 17.8489L13.2862 18.1272C15.1253 17.9013 16.6791 16.9009 17.6644 15.495L17.4347 15.334ZM13.252 17.8489L13.2249 17.5698L12.9167 17.5997L12.9438 17.8788L12.9709 18.1579L13.2792 18.128L13.252 17.8489ZM12.9438 17.8788L12.9238 17.5991C10.0021 17.8083 7.38757 15.765 6.88387 12.8794L6.60762 12.9276L6.33138 12.9758C6.88455 16.1449 9.75501 18.3882 12.9638 18.1585L12.9438 17.8788ZM6.60762 12.9276L6.885 12.8864L6.83964 12.581L6.56226 12.6222L6.28488 12.6635L6.33024 12.9688L6.60762 12.9276ZM6.56226 12.6222L6.8406 12.5881C6.45567 9.45145 8.68644 6.59595 11.823 6.21082L11.7889 5.93249L11.7547 5.65416C8.31061 6.07704 5.86128 9.21239 6.28393 12.6564L6.56226 12.6222ZM11.7889 5.93249L11.816 6.2116L12.1232 6.18174L12.0961 5.90264L12.069 5.62353L11.7618 5.65338L11.7889 5.93249Z" fill="white"/>
</g>
</g>
</g>
<defs>
<filter id="filter0_i_496_7469" x="0" y="0" width="24" height="24" filterUnits="userSpaceOnUse" color-interpolation-filters="sRGB">
<feFlood flood-opacity="0" result="BackgroundImageFix"/>
<feBlend mode="normal" in="SourceGraphic" in2="BackgroundImageFix" result="shape"/>
<feColorMatrix in="SourceAlpha" type="matrix" values="0 0 0 0 0 0 0 0 0 0 0 0 0 0 0 0 0 0 127 0" result="hardAlpha"/>
<feOffset/>
<feGaussianBlur stdDeviation="9.33333"/>
<feComposite in2="hardAlpha" operator="arithmetic" k2="-1" k3="1"/>
<feColorMatrix type="matrix" values="0 0 0 0 1 0 0 0 0 0.977083 0 0 0 0 0.895833 0 0 0 0.25 0"/>
<feBlend mode="normal" in2="shape" result="effect1_innerShadow_496_7469"/>
</filter>
<filter id="filter1_i_496_7469" x="0.22113" y="0.220215" width="23.5591" height="23.5591" filterUnits="userSpaceOnUse" color-interpolation-filters="sRGB">
<feFlood flood-opacity="0" result="BackgroundImageFix"/>
<feBlend mode="normal" in="SourceGraphic" in2="BackgroundImageFix" result="shape"/>
<feColorMatrix in="SourceAlpha" type="matrix" values="0 0 0 0 0 0 0 0 0 0 0 0 0 0 0 0 0 0 127 0" result="hardAlpha"/>
<feOffset/>
<feGaussianBlur stdDeviation="8.28807"/>
<feComposite in2="hardAlpha" operator="arithmetic" k2="-1" k3="1"/>
<feColorMatrix type="matrix" values="0 0 0 0 1 0 0 0 0 0.977083 0 0 0 0 0.895833 0 0 0 0.25 0"/>
<feBlend mode="normal" in2="shape" result="effect1_innerShadow_496_7469"/>
</filter>
<filter id="filter2_d_496_7469" x="3.83288" y="3.20312" width="16.4058" height="17.3752" filterUnits="userSpaceOnUse" color-interpolation-filters="sRGB">
<feFlood flood-opacity="0" result="BackgroundImageFix"/>
<feColorMatrix in="SourceAlpha" type="matrix" values="0 0 0 0 0 0 0 0 0 0 0 0 0 0 0 0 0 0 127 0" result="hardAlpha"/>
<feOffset/>
<feGaussianBlur stdDeviation="1.20181"/>
<feComposite in2="hardAlpha" operator="out"/>
<feColorMatrix type="matrix" values="0 0 0 0 0.79751 0 0 0 0 0.382805 0 0 0 0 0 0 0 0 1 0"/>
<feBlend mode="normal" in2="BackgroundImageFix" result="effect1_dropShadow_496_7469"/>
<feBlend mode="normal" in="SourceGraphic" in2="effect1_dropShadow_496_7469" result="shape"/>
</filter>
<linearGradient id="paint0_linear_496_7469" x1="32.3388" y1="5.01379" x2="31.0864" y2="28.8516" gradientUnits="userSpaceOnUse">
<stop stop-color="#FFE035"/>
<stop offset="0.248142" stop-color="#FFAA46"/>
<stop offset="0.528688" stop-color="#FF9D0B" stop-opacity="0.86"/>
<stop offset="1" stop-color="#EAC91C"/>
</linearGradient>
</defs>
</svg>
