<svg width="24" height="24" viewBox="0 0 24 24" fill="none" xmlns="http://www.w3.org/2000/svg">
<path d="M2 18.9593V14.9821C2.00018 14.4009 2.47139 13.9295 3.05263 13.9295C3.59779 13.9295 4.0464 14.3442 4.10012 14.8752L4.10526 14.9821V18.9593L4.10938 19.0518C4.13069 19.2659 4.22624 19.4668 4.37973 19.6203C4.55515 19.7957 4.79263 19.8947 5.04071 19.8947H18.9593C19.2074 19.8947 19.4449 19.7957 19.6203 19.6203C19.7957 19.4449 19.8947 19.2074 19.8947 18.9593V14.9821C19.8949 14.4009 20.3661 13.9295 20.9474 13.9295C21.5286 13.9295 21.9998 14.4009 22 14.9821V18.9593C21.9999 19.7657 21.68 20.5396 21.1098 21.1098C20.5396 21.68 19.7657 21.9999 18.9593 22H5.04071C4.23428 21.9999 3.46045 21.68 2.89021 21.1098C2.39116 20.6107 2.08347 19.9557 2.01439 19.2595L2 18.9593ZM10.9474 3.05263C10.9474 2.47128 11.4186 2 12 2C12.5814 2 13.0526 2.47128 13.0526 3.05263V12.441L16.2259 9.26768L16.3061 9.1947C16.7196 8.85753 17.3301 8.88231 17.7155 9.26768C18.1262 9.67875 18.1263 10.3452 17.7155 10.7562L12.7442 15.7264C12.5468 15.9238 12.2792 16.0347 12 16.0347C11.7208 16.0347 11.4532 15.9238 11.2558 15.7264L6.28454 10.7562L6.21258 10.676C5.87555 10.2627 5.89951 9.65306 6.28454 9.26768C6.66991 8.88231 7.28043 8.85753 7.69387 9.1947L7.77405 9.26768L10.9474 12.441V3.05263Z" fill="white"/>
</svg>
