<svg width="24" height="24" viewBox="0 0 24 24" fill="none" xmlns="http://www.w3.org/2000/svg">
<path d="M19.8359 15.01C20.6359 15.01 21.3959 14.69 21.9559 14.13C22.5159 13.57 22.8359 12.8 22.8359 12.01V4.01001C22.8359 3.21001 22.5159 2.45001 21.9559 1.89001C21.3959 1.33001 20.6259 1.01001 19.8359 1.01001H18.65C18.29 1.01001 18 1.30001 18 1.66001V14.36C18 14.72 18.29 15.01 18.65 15.01H19.8359Z" fill="white"/>
<path d="M1.05594 12.55C1.13594 13.01 1.32594 13.44 1.60594 13.81C1.88594 14.18 2.24594 14.49 2.66594 14.69C3.08594 14.9 3.54594 15.01 4.00594 15.01H8.56594L7.86594 17.89C7.71594 18.49 7.70594 19.12 7.83594 19.73C7.96594 20.34 8.22594 20.91 8.60594 21.4C8.98594 21.89 9.47594 22.29 10.0259 22.57C10.5859 22.85 11.1959 23 11.8059 23.01C12.1959 23.01 12.5559 22.8 12.7259 22.46L15.97 16.38C16.02 16.28 16.05 16.16 16.05 16.05V1.74001C16.05 1.33001 15.72 1.00001 15.31 1.00001H6.32594C5.67594 1.00001 5.04594 1.21001 4.52594 1.60001C4.00594 1.99001 3.62594 2.54001 3.44594 3.16001L1.11594 11.16L1.07594 11.33C0.985937 11.73 0.975937 12.14 1.04594 12.54L1.05594 12.55Z" fill="white"/>
</svg>
