<svg width="24" height="24" viewBox="0 0 24 24" fill="none" xmlns="http://www.w3.org/2000/svg">
<path d="M17.9327 10.0537L7.82721 20.1611C7.5954 20.3922 7.31027 20.563 6.99713 20.6582L2.64361 21.9775C2.55723 22.0035 2.46545 22.0064 2.37799 21.9844C2.29048 21.9624 2.2104 21.9163 2.14654 21.8525C2.08292 21.7889 2.03781 21.7093 2.01568 21.6221C1.99358 21.5347 1.99486 21.4428 2.02056 21.3564L3.34185 17.0039C3.43797 16.6905 3.60969 16.4053 3.84185 16.1738L13.9454 6.06641L17.9327 10.0537Z" fill="white"/>
<path d="M19.1817 2C19.9292 2.00019 20.6464 2.29657 21.1749 2.8252C21.7034 3.3539 22.0002 4.07174 22.0001 4.81934C21.9998 5.56678 21.7025 6.28403 21.1739 6.8125L20.0538 7.93262L16.0665 3.94531L17.1876 2.8252C17.7163 2.29662 18.4341 1.99991 19.1817 2Z" fill="white"/>
</svg>
