<svg width="24" height="24" viewBox="0 0 24 24" fill="none" xmlns="http://www.w3.org/2000/svg">
<path d="M19.1357 15.2548C19.2519 14.9152 19.7404 14.9152 19.8643 15.2548L20.4443 16.8525C20.5605 17.1843 20.8164 17.4233 21.1416 17.5468L22.7441 18.1337C23.0848 18.2572 23.0848 18.7427 22.7441 18.8662L21.1416 19.4531C20.8242 19.5765 20.5683 19.831 20.4443 20.1474L19.8643 21.7451C19.7481 22.0846 19.2596 22.0846 19.1357 21.7451L18.5557 20.1474C18.4395 19.8311 18.1836 19.5765 17.8584 19.4531L16.2559 18.8662C15.9152 18.7427 15.9152 18.2572 16.2559 18.1337L17.8584 17.5468C18.1758 17.4233 18.4318 17.1689 18.5557 16.8525L19.1357 15.2548Z" fill="white"/>
<path d="M18.9326 10.0537L8.82715 20.1611C8.59534 20.3921 8.3102 20.5629 7.99707 20.6581L3.64355 21.9775C3.55719 22.0034 3.46538 22.0063 3.37793 21.9843C3.29045 21.9623 3.21033 21.9162 3.14648 21.8525C3.08289 21.7888 3.03775 21.7092 3.01562 21.622C2.99353 21.5347 2.99481 21.4427 3.02051 21.3564L4.3418 17.0038C4.43791 16.6904 4.60964 16.4052 4.8418 16.1738L14.9453 6.06635L18.9326 10.0537Z" fill="white"/>
<path d="M4.58398 2.29096C4.71675 1.90293 5.2744 1.90293 5.41602 2.29096L6.08008 4.11713C6.21288 4.4962 6.50442 4.77 6.87598 4.91108L8.70801 5.581C9.09734 5.72214 9.09732 6.27773 8.70801 6.41889L6.87598 7.08881C6.5133 7.22988 6.22174 7.52133 6.08008 7.88276L5.41602 9.70893C5.28327 10.097 4.72558 10.097 4.58398 9.70893L3.91992 7.88276C3.7871 7.52133 3.49555 7.22988 3.12402 7.08881L1.29199 6.41889C0.902676 6.27774 0.902662 5.72213 1.29199 5.581L3.12402 4.91108C3.48672 4.77 3.77827 4.47858 3.91992 4.11713L4.58398 2.29096Z" fill="white"/>
<path d="M20.1816 1.99994C20.9291 2.00013 21.6463 2.29654 22.1748 2.82514C22.7034 3.35384 23.0001 4.07169 23 4.81928C22.9998 5.56672 22.7024 6.28398 22.1738 6.81244L21.0537 7.93256L17.0664 3.94526L18.1875 2.82514C18.7162 2.29657 19.434 1.99986 20.1816 1.99994Z" fill="white"/>
</svg>
