<svg width="24" height="24" viewBox="0 0 24 24" fill="none" xmlns="http://www.w3.org/2000/svg">
<path d="M9.29297 13.293C9.68349 12.9024 10.3165 12.9025 10.707 13.293C11.0976 13.6835 11.0976 14.3165 10.707 14.707L5.41406 20H9C9.55228 20 10 20.4477 10 21C10 21.5523 9.55228 22 9 22H3C2.94333 22 2.88808 21.9934 2.83398 21.9844C2.8239 21.9827 2.81375 21.9815 2.80371 21.9795C2.78854 21.9765 2.77371 21.9725 2.75879 21.9688C2.74286 21.9648 2.7267 21.9618 2.71094 21.957C2.66092 21.9419 2.61278 21.9228 2.56641 21.9004C2.52662 21.8812 2.48768 21.8597 2.4502 21.835C2.31255 21.7441 2.19887 21.6203 2.12012 21.4746C2.11269 21.4609 2.10634 21.4466 2.09961 21.4326C2.03652 21.3016 2 21.1552 2 21V15C2 14.4477 2.44772 14 3 14C3.55228 14 4 14.4477 4 15V18.5859L9.29297 13.293Z" fill="white"/>
<path d="M21 2C21.0563 2 21.1113 2.00571 21.165 2.01465C21.1738 2.01611 21.1827 2.01686 21.1914 2.01855L21.2012 2.02051C21.211 2.02252 21.2207 2.02504 21.2305 2.02734C21.251 2.0322 21.2717 2.0368 21.292 2.04297C21.3408 2.05783 21.3873 2.0778 21.4326 2.09961C21.4466 2.10634 21.4609 2.11269 21.4746 2.12012C21.6203 2.19887 21.7441 2.31255 21.835 2.4502C21.8597 2.48768 21.8812 2.52662 21.9004 2.56641C21.9222 2.61159 21.9412 2.65838 21.9561 2.70703C21.9623 2.72732 21.9668 2.74798 21.9717 2.76855C21.9893 2.84294 22 2.92022 22 3V9C22 9.55228 21.5523 10 21 10C20.4477 10 20 9.55228 20 9V5.41406L14.707 10.707C14.3165 11.0975 13.6835 11.0975 13.293 10.707C12.9025 10.3165 12.9025 9.68349 13.293 9.29297L18.5859 4H15C14.4477 4 14 3.55228 14 3C14 2.44772 14.4477 2 15 2H21Z" fill="white"/>
</svg>
