<svg width="24" height="24" viewBox="0 0 24 24" fill="none" xmlns="http://www.w3.org/2000/svg">
<path fill-rule="evenodd" clip-rule="evenodd" d="M13.2256 1.02277C13.5183 0.968729 13.8201 1.00245 14.0918 1.11945L14.206 1.17512L14.3154 1.23957C14.5279 1.37767 14.7019 1.56774 14.8213 1.79133L14.8769 1.90559L14.9218 2.02473C15.015 2.3052 15.0231 2.60807 14.9443 2.89484C14.9408 2.90773 14.9376 2.92117 14.9336 2.93391L13.0136 8.95344L12.997 9.00031H20C20.3773 8.99966 20.7478 9.10537 21.0674 9.30598C21.3877 9.50717 21.6443 9.79579 21.8076 10.137C21.9708 10.4783 22.0346 10.859 21.9902 11.2347C21.9458 11.6104 21.7949 11.9662 21.5566 12.2601C21.5381 12.2829 21.5185 12.3054 21.498 12.3265L11.5976 22.5267L11.5966 22.5257C11.378 22.7595 11.091 22.9194 10.7754 22.9779C10.4409 23.0397 10.0948 22.9858 9.79489 22.8255C9.49493 22.6651 9.25825 22.4066 9.12399 22.0941C8.9899 21.7815 8.96642 21.4327 9.05661 21.1048L9.06735 21.0657L10.9873 15.0462L11.0039 15.0003H3.99997C3.62297 15.0009 3.25295 14.8941 2.93356 14.6937C2.6133 14.4926 2.35666 14.2047 2.19333 13.8636C2.02996 13.5222 1.9663 13.1408 2.01071 12.765C2.05518 12.3893 2.20595 12.0334 2.4443 11.7396C2.46281 11.7168 2.48246 11.6942 2.5029 11.6732L12.4033 1.47395C12.622 1.24004 12.9097 1.08121 13.2256 1.02277ZM4.0029 13.0003H11C11.3224 12.9998 11.6407 13.0771 11.9267 13.2259C12.2135 13.3752 12.4607 13.5914 12.6455 13.8568C12.8303 14.1222 12.9478 14.4294 12.9882 14.7503C13.0266 15.0548 12.9908 15.363 12.8906 15.6527L12.8935 15.6536L11.6269 19.6243L19.998 11.0003H13C12.6779 11.0008 12.36 10.9233 12.0742 10.7747C11.7873 10.6255 11.5403 10.4083 11.3554 10.1429C11.1707 9.87752 11.0531 9.5711 11.0127 9.25031C10.9742 8.94529 11.0089 8.6361 11.1093 8.34602H11.1074L12.373 4.37434L4.0029 13.0003Z" fill="white"/>
</svg>
