<svg width="24" height="24" viewBox="0 0 24 24" fill="none" xmlns="http://www.w3.org/2000/svg">
<path d="M20 9.50042V9.49065C20.0034 8.78177 19.7909 8.08845 19.3906 7.50336C18.9903 6.91823 18.4208 6.46901 17.7588 6.21528C17.0968 5.96161 16.3734 5.91481 15.6846 6.08247C14.9958 6.25014 14.3746 6.62419 13.9033 7.15375C13.8925 7.16594 13.8813 7.17796 13.8701 7.18988C13.6308 7.44581 13.3409 7.64993 13.0195 7.78949C12.6979 7.92905 12.3506 8.0014 12 8.0014C11.6494 8.0014 11.3021 7.92905 10.9805 7.78949C10.6591 7.64993 10.3692 7.44581 10.1299 7.18988C10.1209 7.18029 10.1123 7.17036 10.1035 7.16059C9.63021 6.63387 9.00778 6.26295 8.31934 6.09712C7.63099 5.93139 6.90819 5.97849 6.24707 6.23188C5.58594 6.48534 5.01741 6.93362 4.61621 7.51703C4.21497 8.10051 4.00001 8.79229 4 9.50042C4.00019 10.8887 4.88476 12.056 6.41406 13.5853L11.8994 18.8949L12 18.9994L12.0127 20.9994L11.8008 20.9896C11.6601 20.9755 11.5213 20.947 11.3867 20.9037L11.1885 20.8275C10.9292 20.7124 10.6968 20.5439 10.5078 20.3324L5 15.0004C3.54697 13.5474 2.09347 11.9062 2.00391 9.71428L2 9.50042C2.00002 8.38762 2.33723 7.30016 2.96777 6.38325C3.55895 5.52363 4.38211 4.85167 5.33887 4.44283L5.53125 4.36471C6.57034 3.96645 7.70623 3.8922 8.78809 4.1528C9.86982 4.41337 10.8471 4.99611 11.5908 5.82368C11.6432 5.8797 11.707 5.92499 11.7773 5.95552C11.8476 5.98595 11.9234 6.00142 12 6.00142C12.0385 6.00142 12.0768 5.99751 12.1143 5.9897L12.2227 5.95552C12.293 5.92499 12.3568 5.8797 12.4092 5.82368C13.1043 5.04278 14.0069 4.47773 15.0098 4.19284L15.2119 4.13913C16.2953 3.8755 17.4334 3.94816 18.4746 4.34713C19.5159 4.74622 20.4113 5.4532 21.041 6.37348C21.6707 7.29393 22.0053 8.38518 22 9.50042L21.9961 9.71331C21.9066 11.8968 20.4531 13.5473 19 15.0004L13.5078 20.3128C13.3215 20.5268 13.0918 20.6984 12.834 20.8167C12.5762 20.9351 12.2963 20.9975 12.0127 20.9994L12 18.9994L12.1172 18.8754L17.5859 13.5853C19.1135 12.0578 19.9998 10.8798 20 9.50042Z" fill="white"/>
</svg>
