<svg width="24" height="24" viewBox="0 0 24 24" fill="none" xmlns="http://www.w3.org/2000/svg">
<path fill-rule="evenodd" clip-rule="evenodd" d="M16.5 1C17.4282 1 18.3183 1.36915 18.9746 2.02539C19.6308 2.68164 19.9999 3.572 20 4.5C19.9999 5.02369 19.8824 5.5355 19.6621 6H20C21.1046 6 22 6.89543 22 8V10C22 10.7398 21.5971 11.3835 21 11.7295V19C21 19.7957 20.6837 20.5585 20.1211 21.1211C19.5585 21.6837 18.7957 22 18 22H6C5.20435 22 4.44152 21.6837 3.87891 21.1211C3.3163 20.5585 3 19.7956 3 19V11.7295C2.4029 11.3835 2 10.7398 2 10V8C2 6.89543 2.89543 6 4 6H4.33789C4.11759 5.5355 4.00006 5.02369 4 4.5C4.00012 3.572 4.36925 2.68164 5.02539 2.02539C5.68175 1.36915 6.57185 1 7.5 1V1.00195C8.81588 0.984854 10.0149 1.62906 10.9561 2.6748C11.3499 3.11247 11.6986 3.61958 12 4.17871C12.3014 3.61958 12.6501 3.11247 13.0439 2.6748C13.9851 1.62906 15.1841 0.984854 16.5 1.00195V1ZM5 12V19C5 19.2652 5.10543 19.5195 5.29297 19.707C5.48051 19.8946 5.73478 20 6 20H11V12H5ZM13 12V20H18C18.2652 20 18.5195 19.8946 18.707 19.707C18.8946 19.5195 19 19.2652 19 19V12H13ZM13 10H20V8H13V10ZM4 10H11V8H4V10ZM7.5 3C7.10228 3 6.72074 3.15829 6.43945 3.43945C6.15839 3.72063 6.00012 4.10243 6 4.5C6.00011 4.89767 6.15825 5.28032 6.43945 5.56152C6.72071 5.84253 7.1024 6 7.5 6H10.6387C10.322 5.18928 9.92138 4.51467 9.46973 4.0127C8.80968 3.27931 8.1242 2.98949 7.51758 3C7.51177 3.0001 7.5058 3 7.5 3ZM16.4824 3C15.8758 2.98949 15.1903 3.27931 14.5303 4.0127C14.0786 4.51467 13.678 5.18928 13.3613 6H16.5C16.8976 6 17.2793 5.84253 17.5605 5.56152C17.8418 5.28032 17.9999 4.89767 18 4.5C17.9999 4.10243 17.8416 3.72063 17.5605 3.43945C17.2793 3.15829 16.8977 3 16.5 3C16.4942 3 16.4882 3.0001 16.4824 3Z" fill="white"/>
</svg>
