<svg width="24" height="24" viewBox="0 0 24 24" fill="none" xmlns="http://www.w3.org/2000/svg">
<path fill-rule="evenodd" clip-rule="evenodd" d="M13.5682 2.05062C15.0671 1.8659 16.5852 2.18615 17.8817 2.96077L18.3514 3.24104L18.5018 3.31624C18.6515 3.37627 18.8142 3.39917 18.9754 3.38265L19.0672 3.36897L20.0115 3.17854L20.0037 3.09065C19.9539 2.54087 20.3593 2.05396 20.909 2.00374C21.4589 1.95375 21.9457 2.35924 21.9959 2.90901L22.9959 13.909C23.0214 14.1888 22.9276 14.4672 22.7381 14.6746C22.5487 14.8819 22.2806 14.9998 21.9998 14.9998H21.1209C21.1207 15.8274 20.792 16.6227 20.2069 17.2078C19.6216 17.7929 18.8274 18.1219 17.9998 18.1219C17.8529 18.1219 17.7071 18.111 17.5633 18.0907C17.5236 18.2969 17.4644 18.4992 17.3836 18.6942C17.2268 19.0729 16.9967 19.417 16.7069 19.7069C16.417 19.9967 16.0729 20.2268 15.6942 20.3836C15.3155 20.5404 14.9096 20.6209 14.4998 20.6209C14.09 20.6209 13.6841 20.5404 13.3055 20.3836C13.1617 20.3241 13.0232 20.2536 12.8905 20.1737C12.735 20.5566 12.5048 20.9089 12.2069 21.2069C11.6215 21.7922 10.8276 22.1209 9.99983 22.1209C9.17208 22.1209 8.3781 21.7922 7.79279 21.2069L1.29279 14.7069C1.08307 14.497 0.976871 14.2045 1.00373 13.909L2.00373 2.90901C2.05394 2.35929 2.54087 1.95388 3.09065 2.00374C3.60998 2.05109 4.00016 2.48817 3.99983 2.99983H10.8553C11.6768 2.49691 12.6002 2.16993 13.5682 2.05062ZM3.82209 4.99983L3.03791 13.6239L9.20686 19.7928C9.4171 20.003 9.70251 20.1209 9.99983 20.1209C10.2972 20.1209 10.5825 20.0031 10.7928 19.7928C11.0031 19.5825 11.1209 19.2972 11.1209 18.9998C11.1209 18.7025 11.003 18.4171 10.7928 18.2069L10.2928 17.7069C9.90244 17.3163 9.90234 16.6833 10.2928 16.2928C10.6833 15.9023 11.3163 15.9024 11.7069 16.2928L13.7069 18.2928C13.8109 18.3969 13.9352 18.4796 14.0711 18.536C14.207 18.5922 14.3528 18.6209 14.4998 18.6209C14.6469 18.6209 14.7926 18.5922 14.9285 18.536C15.0646 18.4796 15.1887 18.3969 15.2928 18.2928C15.3969 18.1887 15.4796 18.0646 15.536 17.9285C15.5922 17.7926 15.6209 17.6469 15.6209 17.4998C15.6209 17.3528 15.5922 17.207 15.536 17.0711C15.4811 16.9387 15.4009 16.818 15.3006 16.7157L13.2928 14.7078C12.9023 14.3174 12.9024 13.6833 13.2928 13.2928C13.6832 12.9025 14.3163 12.9027 14.7069 13.2928L17.2069 15.7928C17.4171 16.0029 17.7026 16.1218 17.9998 16.1219C18.2971 16.1219 18.5825 16.003 18.7928 15.7928C19.0028 15.5827 19.1207 15.2978 19.1209 15.0008C19.1209 14.7036 19.0029 14.4181 18.7928 14.2078L14.9129 10.327C14.5379 9.95258 14.0297 9.74301 13.4998 9.743C12.9699 9.74306 12.4617 9.95348 12.0867 10.328L12.0858 10.327L11.2069 11.2078C10.6216 11.7929 9.8274 12.1219 8.99983 12.1219C8.17223 12.1218 7.37807 11.7929 6.79279 11.2078C6.20763 10.6227 5.87895 9.82834 5.87873 9.00081C5.87873 8.17306 6.20753 7.37815 6.79279 6.7928L8.58674 4.99983H3.82209ZM16.8572 4.67854C15.9425 4.13162 14.8711 3.90568 13.8133 4.03597C12.7555 4.16632 11.7711 4.64564 11.0164 5.39827L8.20686 8.20784C7.99688 8.41808 7.87873 8.70365 7.87873 9.00081C7.87895 9.29773 7.99699 9.58274 8.20686 9.7928C8.41707 10.0029 8.70261 10.1218 8.99983 10.1219C9.29713 10.1219 9.58253 10.003 9.79279 9.7928L10.6727 8.91292C11.4226 8.16395 12.4399 7.74306 13.4998 7.743C14.4937 7.74301 15.4498 8.11265 16.1834 8.7762L16.327 8.91292L20.2069 12.7928C20.2731 12.8591 20.3357 12.9284 20.3953 12.9998H20.9041L20.1932 5.18147L19.4569 5.33089L19.4529 5.33187C18.7229 5.47555 17.9655 5.34208 17.3279 4.95882L16.8582 4.67952L16.8572 4.67854Z" fill="white"/>
</svg>
