<svg width="24" height="24" viewBox="0 0 24 24" fill="none" xmlns="http://www.w3.org/2000/svg">
<path d="M7 16C7 15.7348 6.89457 15.4805 6.70703 15.293C6.51949 15.1054 6.26522 15 6 15H4V19C4 19.2652 4.10543 19.5195 4.29297 19.707C4.48051 19.8946 4.73478 20 5 20H6C6.26522 20 6.51949 19.8946 6.70703 19.707C6.89457 19.5195 7 19.2652 7 19V16ZM15 19V16C15 15.2043 15.3163 14.4415 15.8789 13.8789C16.4415 13.3163 17.2043 13 18 13H20V12C20 9.87827 19.1575 7.84306 17.6572 6.34277C16.1569 4.84248 14.1217 4 12 4C9.87827 4 7.84306 4.84248 6.34277 6.34277C4.84248 7.84306 4 9.87827 4 12V13H6C6.79565 13 7.55849 13.3163 8.12109 13.8789C8.6837 14.4415 9 15.2044 9 16V19C9 19.7957 8.6837 20.5585 8.12109 21.1211C7.55849 21.6837 6.79565 22 6 22H5C4.20435 22 3.44152 21.6837 2.87891 21.1211C2.3163 20.5585 2 19.7957 2 19V12C2 9.34784 3.05335 6.80407 4.92871 4.92871C6.80407 3.05335 9.34784 2 12 2C14.6522 2 17.1959 3.05335 19.0713 4.92871C20.9467 6.80407 22 9.34784 22 12V19C22 19.7957 21.6837 20.5585 21.1211 21.1211C20.5585 21.6837 19.7957 22 19 22H18C17.2043 22 16.4415 21.6837 15.8789 21.1211C15.3163 20.5585 15 19.7957 15 19ZM17 19C17 19.2652 17.1054 19.5195 17.293 19.707C17.4805 19.8946 17.7348 20 18 20H19C19.2652 20 19.5195 19.8946 19.707 19.707C19.8946 19.5195 20 19.2652 20 19V15H18C17.7348 15 17.4805 15.1054 17.293 15.293C17.1054 15.4805 17 15.7348 17 16V19Z" fill="white"/>
</svg>
