<svg width="24" height="24" viewBox="0 0 24 24" fill="none" xmlns="http://www.w3.org/2000/svg">
<path d="M10.4246 8.00981C11.2828 8.07127 12.1178 8.31703 12.8728 8.72954C13.6279 9.14204 14.2852 9.71246 14.8006 10.4014C15.1312 10.8436 15.0414 11.47 14.5994 11.8008C14.1572 12.1316 13.5298 12.0409 13.199 11.5987C12.8555 11.1395 12.4171 10.7594 11.9139 10.4844C11.4106 10.2095 10.854 10.0459 10.282 10.0049C9.71 9.96396 9.13577 10.0467 8.59843 10.2471C8.1281 10.4226 7.69551 10.6849 7.32304 11.0196L7.16679 11.167L4.17948 14.1543L4.04667 14.2989C3.40203 15.0352 3.04801 15.9847 3.05644 16.9678C3.06555 18.0166 3.48668 19.0201 4.22831 19.7618C4.96985 20.5033 5.97267 20.9244 7.02128 20.9336C8.07007 20.9428 9.08133 20.5392 9.83573 19.8106L11.533 18.1133C11.9235 17.7228 12.5565 17.7228 12.9471 18.1133C13.3374 18.5039 13.3375 19.1369 12.9471 19.5274L11.2371 21.2373L11.0086 21.4483C9.90394 22.4153 8.47955 22.9464 7.00468 22.9336C5.43153 22.92 3.92669 22.2882 2.81425 21.1758C1.7018 20.0634 1.07011 18.5586 1.05644 16.9854C1.04369 15.5105 1.57471 14.0862 2.54179 12.9815L2.75273 12.753L5.75273 9.75297L5.98613 9.53129C6.5448 9.02938 7.19377 8.63624 7.89921 8.37309C8.70523 8.07244 9.56654 7.94839 10.4246 8.00981ZM16.9959 1.06645C18.569 1.08018 20.0739 1.71186 21.1863 2.82426C22.2986 3.93668 22.9295 5.44165 22.9432 7.01469C22.9567 8.5876 22.3522 10.1029 21.2596 11.2344L18.2469 14.2471C17.6387 14.8555 16.9064 15.3263 16.1004 15.627C15.2944 15.9276 14.433 16.0507 13.575 15.9893C12.7169 15.9278 11.8817 15.683 11.1267 15.2706C10.3718 14.8581 9.71431 14.2876 9.19902 13.5987C8.86847 13.1564 8.95901 12.53 9.40116 12.1993C9.84341 11.8685 10.4698 11.9592 10.8006 12.4014C11.1441 12.8606 11.5825 13.2407 12.0857 13.5157C12.5891 13.7907 13.1464 13.9542 13.7185 13.9952C14.2905 14.0361 14.8649 13.9534 15.4021 13.753C15.9395 13.5525 16.4274 13.2386 16.8328 12.8331L19.8328 9.83305C20.5539 9.07999 20.9522 8.07434 20.9432 7.03129C20.9339 5.98279 20.5136 4.97983 19.7723 4.23832C19.0306 3.4967 18.0271 3.07557 16.9783 3.06645C15.9295 3.05734 14.9192 3.46086 14.1648 4.1895L14.1639 4.18852L12.4549 5.88872C12.0632 6.2781 11.4302 6.27647 11.0408 5.88481C10.6516 5.49316 10.6532 4.8601 11.0447 4.47075L12.7654 2.76079L12.7752 2.75102C13.9068 1.65807 15.4227 1.05278 16.9959 1.06645Z" fill="white"/>
</svg>
