<svg width="24" height="24" viewBox="0 0 24 24" fill="none" xmlns="http://www.w3.org/2000/svg">
<path fill-rule="evenodd" clip-rule="evenodd" d="M11.3975 1.02528C12.8777 0.875883 14.3607 1.28161 15.5586 2.16396C16.7565 3.04637 17.5837 4.34266 17.8799 5.80067C17.9897 6.34188 17.6398 6.87047 17.0986 6.98036C16.5576 7.08998 16.0299 6.74013 15.9199 6.19911C15.7225 5.22701 15.1707 4.36263 14.3721 3.77431C13.5735 3.18613 12.5845 2.91584 11.5977 3.01552C10.6109 3.11529 9.69604 3.57828 9.03125 4.31435C8.36662 5.05042 7.99903 6.00717 8 6.99892V9.99989H19C20.6568 9.99989 22 11.3431 22 12.9999V19.9999C22 21.6567 20.6569 22.9999 19 22.9999H5C3.34315 22.9999 2 21.6567 2 19.9999V12.9999C2.00004 11.3431 3.34317 9.99989 5 9.99989H6V6.99989C5.99879 5.51249 6.54998 4.07744 7.54688 2.97353C8.54418 1.86929 9.91706 1.17482 11.3975 1.02528ZM5 11.9999C4.44774 11.9999 4.00004 12.4476 4 12.9999V19.9999C4 20.5522 4.44772 20.9999 5 20.9999H19C19.5523 20.9999 20 20.5522 20 19.9999V12.9999C20 12.4476 19.5523 11.9999 19 11.9999H5Z" fill="white"/>
</svg>
