<svg width="24" height="24" viewBox="0 0 24 24" fill="none" xmlns="http://www.w3.org/2000/svg">
<path d="M9 2C9.55228 2 10 2.44772 10 3C10 3.55228 9.55228 4 9 4H5C4.73478 4 4.4805 4.10543 4.29297 4.29297C4.10543 4.4805 4 4.73478 4 5V19C4 19.2652 4.10543 19.5195 4.29297 19.707C4.48051 19.8946 4.73478 20 5 20H9C9.55228 20 10 20.4477 10 21C10 21.5523 9.55228 22 9 22H5C4.20435 22 3.44152 21.6837 2.87891 21.1211C2.3163 20.5585 2 19.7957 2 19V5C2 4.20435 2.3163 3.44152 2.87891 2.87891C3.44152 2.3163 4.20435 2 5 2H9Z" fill="white"/>
<path d="M15.293 6.29297C15.6835 5.90245 16.3165 5.90246 16.707 6.29297L21.707 11.293C21.7548 11.3408 21.7976 11.3935 21.835 11.4502C21.8597 11.4877 21.8812 11.5266 21.9004 11.5664C21.9222 11.6116 21.9412 11.6584 21.9561 11.707C21.9623 11.7273 21.9668 11.748 21.9717 11.7686C21.9893 11.8429 22 11.9202 22 12C22 12.1552 21.9635 12.3016 21.9004 12.4326C21.8936 12.4468 21.8864 12.4607 21.8789 12.4746C21.851 12.5262 21.8184 12.5745 21.7822 12.6201C21.7586 12.6498 21.7345 12.6796 21.707 12.707L16.707 17.707C16.3165 18.0975 15.6835 18.0975 15.293 17.707C14.9025 17.3165 14.9025 16.6835 15.293 16.293L18.5859 13H9C8.44772 13 8 12.5523 8 12C8 11.4477 8.44772 11 9 11H18.5859L15.293 7.70703C14.9025 7.31652 14.9025 6.68349 15.293 6.29297Z" fill="white"/>
</svg>
