<svg width="24" height="24" viewBox="0 0 24 24" fill="none" xmlns="http://www.w3.org/2000/svg">
<path d="M4 9C3.2 9 2.44 9.32 1.88 9.88C1.32 10.44 1 11.21 1 12V20C1 20.8 1.32 21.56 1.88 22.12C2.44 22.68 3.21 23 4 23H5.39C5.75 23 6.04 22.71 6.04 22.35V9.65C6.04 9.29 5.75 9 5.39 9H4Z" fill="white"/>
<path d="M22.78 11.46C22.7 11 22.51 10.57 22.23 10.2C21.95 9.83 21.59 9.52 21.17 9.32C20.75 9.11 20.29 9 19.83 9H15.27L15.97 6.12C16.12 5.52 16.13 4.89 16 4.28C15.87 3.67 15.61 3.1 15.23 2.61C14.85 2.12 14.36 1.72 13.81 1.44C13.25 1.16 12.64 1.01 12.03 1C11.64 1 11.28 1.21 11.11 1.55L8.07 7.63C8.02 7.73 7.99 7.85 7.99 7.96V22.27C7.99 22.68 8.32 23.01 8.73 23.01H17.51C18.16 23.01 18.79 22.8 19.31 22.41C19.83 22.02 20.21 21.47 20.39 20.85L22.72 12.85L22.76 12.68C22.85 12.28 22.86 11.87 22.79 11.47L22.78 11.46Z" fill="white"/>
</svg>
