<svg width="24" height="24" viewBox="0 0 24 24" fill="none" xmlns="http://www.w3.org/2000/svg">
<path d="M14 21C14.5523 21 15 21.4477 15 22C15 22.5523 14.5523 23 14 23H10C9.44772 23 9 22.5523 9 22C9 21.4477 9.44772 21 10 21H14Z" fill="white"/>
<path d="M15 17C15.5523 17 16 17.4477 16 18C16 18.5523 15.5523 19 15 19H9C8.44772 19 8 18.5523 8 18C8 17.4477 8.44772 17 9 17H15Z" fill="white"/>
<path d="M12 1C13.8565 1 15.6374 1.73705 16.9502 3.0498C18.2629 4.36256 19 6.14349 19 8C19 9.53091 18.4159 11.0954 17.2061 12.2061L17.207 12.207C16.4731 12.9409 16.1254 13.4714 15.9805 14.1963C15.8721 14.7377 15.3452 15.0888 14.8037 14.9805C14.2623 14.8721 13.9112 14.3452 14.0195 13.8037C14.2746 12.5287 14.9269 11.659 15.793 10.793L15.8311 10.7568C16.5948 10.0695 17 9.05279 17 8C17 6.67392 16.4728 5.40253 15.5352 4.46484C14.5975 3.52716 13.3261 3 12 3C10.6739 3 9.40253 3.52716 8.46484 4.46484C7.52716 5.40253 7 6.67392 7 8C7 8.80425 7.13856 9.7245 8.20703 10.793C8.96323 11.5492 9.72371 12.5202 9.98047 13.8037C10.0888 14.3452 9.73774 14.8721 9.19629 14.9805C8.65479 15.0888 8.12793 14.7377 8.01953 14.1963C7.87625 13.4799 7.43673 12.8508 6.79297 12.207C5.26144 10.6755 5 9.19575 5 8C5 6.14348 5.73705 4.36256 7.0498 3.0498C8.36256 1.73705 10.1435 1 12 1Z" fill="white"/>
</svg>
