<svg width="24" height="24" viewBox="0 0 24 24" fill="none" xmlns="http://www.w3.org/2000/svg">
<path fill-rule="evenodd" clip-rule="evenodd" d="M17 11C17.3788 11 17.7251 11.214 17.8945 11.5527L22.8945 21.5527C23.1415 22.0467 22.9412 22.6475 22.4473 22.8945C21.9533 23.1415 21.3525 22.9412 21.1055 22.4473L19.3818 19H14.6182L12.8945 22.4473C12.6475 22.9412 12.0467 23.1415 11.5527 22.8945C11.0588 22.6475 10.8585 22.0467 11.1055 21.5527L16.1055 11.5527L16.1768 11.4316C16.3617 11.1637 16.6686 11 17 11ZM15.6182 17H18.3818L17 14.2363L15.6182 17Z" fill="white"/>
<path d="M14 4C14.5523 4 15 4.44772 15 5C15 5.55228 14.5523 6 14 6H12.5352L10.832 8.55469C10.7955 8.60948 10.7536 8.66047 10.707 8.70703L8.91406 10.5L11.707 13.293C12.0976 13.6835 12.0976 14.3165 11.707 14.707C11.3165 15.0975 10.6835 15.0975 10.293 14.707L7.5 11.9141L4.70703 14.707C4.31651 15.0975 3.68349 15.0976 3.29297 14.707C2.90248 14.3165 2.90247 13.6835 3.29297 13.293L6.08594 10.5L4.29297 8.70703C3.90247 8.31652 3.90248 7.68349 4.29297 7.29297C4.68349 6.90245 5.31651 6.90246 5.70703 7.29297L7.5 9.08594L9.22266 7.36328L10.1318 6H2C1.44772 6 1 5.55228 1 5C1 4.44772 1.44772 4 2 4H14Z" fill="white"/>
<path d="M8 1C8.55228 1 9 1.44772 9 2C9 2.55228 8.55228 3 8 3H7C6.44772 3 6 2.55228 6 2C6 1.44772 6.44772 1 7 1H8Z" fill="white"/>
</svg>
