<svg width="24" height="24" viewBox="0 0 24 24" fill="none" xmlns="http://www.w3.org/2000/svg">
<path d="M21.8011 11.2582C21.9749 11.2293 22.153 11.2783 22.2875 11.392C22.422 11.506 22.5004 11.6737 22.5004 11.85V19.6498C22.5004 20.9753 21.4255 22.0502 20.1 22.0502C18.7745 22.0502 17.6996 20.9753 17.6996 19.6498C17.6997 18.3244 18.7746 17.2505 20.1 17.2504C20.5372 17.2504 20.9471 17.3674 21.3002 17.5717V12.558L15.3002 13.558V20.85C15.3002 22.1755 14.2253 23.2504 12.8998 23.2504C11.5744 23.2503 10.5004 22.1754 10.5004 20.85C10.5004 19.5246 11.5744 18.4498 12.8998 18.4496C13.337 18.4496 13.7469 18.5676 14.1 18.7719V13.0502C14.1 12.7569 14.3126 12.5066 14.6019 12.4584L21.8011 11.2582ZM15.0228 0.6469C16.3564 0.289565 17.7279 1.08095 18.0853 2.41448L18.6029 4.3471L18.6244 4.4467C18.6999 4.91343 18.4354 5.37237 17.9935 5.54045L17.8959 5.5717L8.83142 8.00042H18.0004C18.6906 8.00058 19.2504 8.56016 19.2504 9.25042V10.2504C19.2502 10.6643 18.9143 11.0003 18.5004 11.0004C18.0863 11.0004 17.7506 10.6644 17.7504 10.2504V9.50042H4.25036V15.7504C4.25057 16.4406 4.81014 17.0004 5.50036 17.0004H9.50036C9.91444 17.0006 10.2504 17.3363 10.2504 17.7504C10.2502 18.1643 9.91431 18.5003 9.50036 18.5004H5.50036C3.98171 18.5004 2.75057 17.269 2.75036 15.7504V8.83049C2.73047 8.79333 2.71097 8.75548 2.69568 8.71526L2.66443 8.6176L2.14685 6.68499C1.7898 5.35158 2.58114 3.98095 3.91443 3.62346L15.0228 0.6469ZM4.3031 5.07268C3.76968 5.21566 3.45313 5.76385 3.59607 6.29729L3.98376 7.74553L7.84704 6.71038L5.99255 4.61956L4.3031 5.07268ZM7.61267 4.18499L9.46716 6.27581L12.6771 5.41545L10.8226 3.32463L7.61267 4.18499ZM16.6361 2.80315C16.4932 2.26975 15.9449 1.9533 15.4115 2.09612L12.4427 2.89104L14.2972 4.98186L17.0238 4.25237L16.6361 2.80315Z" fill="white"/>
</svg>
