<svg width="24" height="24" viewBox="0 0 24 24" fill="none" xmlns="http://www.w3.org/2000/svg">
<path d="M12.8654 20.5C13.1415 20.0219 13.7534 19.858 14.2316 20.1338C14.7098 20.4099 14.8739 21.0217 14.5978 21.5C14.3346 21.9558 13.9559 22.3344 13.5001 22.5977C13.0443 22.8608 12.5265 22.9999 12.0001 23C11.4737 23 10.9561 22.8609 10.5001 22.5977C10.0442 22.3344 9.66478 21.9559 9.40151 21.5C9.12559 21.0218 9.28969 20.41 9.76772 20.1338C10.2459 19.8577 10.8578 20.0219 11.1339 20.5C11.2217 20.6519 11.3483 20.7785 11.5001 20.8662C11.652 20.9538 11.8249 21 12.0001 21C12.1754 20.9999 12.3483 20.9538 12.5001 20.8662C12.652 20.7785 12.7777 20.6518 12.8654 20.5Z" fill="white"/>
<path fill-rule="evenodd" clip-rule="evenodd" d="M12.0001 1C13.8565 1.00009 15.6377 1.7372 16.9503 3.0498C18.263 4.36254 19.0001 6.14356 19.0001 8C19.0001 10.1447 19.3361 11.4789 19.7755 12.4092C20.106 13.1085 20.5132 13.6223 20.9767 14.125L21.4582 14.6309L21.4796 14.6543C21.7404 14.941 21.9127 15.2972 21.9748 15.6797C22.0368 16.062 21.9868 16.4543 21.8302 16.8086C21.6735 17.1629 21.4165 17.4644 21.0919 17.6758C20.8077 17.8608 20.4813 17.9708 20.1447 17.9951L20.0001 18H4.00014C3.61261 17.9997 3.23292 17.8865 2.90835 17.6748C2.58374 17.463 2.32742 17.1613 2.17104 16.8066C2.01472 16.452 1.9649 16.0593 2.02749 15.6768C2.09011 15.2944 2.2625 14.9386 2.52358 14.6523L2.54409 14.6299C3.20847 13.944 3.78426 13.3416 4.22475 12.4092C4.66417 11.4789 5.00014 10.1446 5.00014 8C5.00014 6.14348 5.73817 4.36256 7.05092 3.0498C8.36357 1.73744 10.144 1.00007 12.0001 1ZM12.0001 3C10.6742 3.00007 9.4026 3.52732 8.46499 4.46484C7.52738 5.40251 7.00014 6.67398 7.00014 8C7.00014 10.3542 6.63111 11.9982 6.03335 13.2637C5.44293 14.5135 4.6593 15.3206 4.00112 16H20.0001C19.3406 15.3202 18.5581 14.5127 17.9679 13.2637C17.3699 11.998 17.0001 10.3541 17.0001 8C17.0001 6.67417 16.4736 5.40247 15.5363 4.46484C14.5987 3.52724 13.3261 3.00009 12.0001 3Z" fill="white"/>
</svg>
