<svg width="24" height="24" viewBox="0 0 24 24" fill="none" xmlns="http://www.w3.org/2000/svg">
<path fill-rule="evenodd" clip-rule="evenodd" d="M12 1C16.4762 1 20.3246 3.67522 22.042 7.5127C22.0687 7.56031 22.0917 7.6101 22.1104 7.66211C22.6822 8.99321 23 10.4594 23 12C23 18.0751 18.0751 23 12 23C11.6305 23 11.2654 22.9809 10.9053 22.9453C10.902 22.945 10.8988 22.9447 10.8955 22.9443C5.33905 22.3903 1 17.7023 1 12C1 7.93868 3.20232 4.39373 6.47656 2.48828C6.49603 2.47629 6.51581 2.46476 6.53613 2.4541C8.14622 1.53053 10.0107 1 12 1ZM6.01074 5.2832C4.6392 6.50705 3.64672 8.14462 3.22559 10H5C5.79554 10.0001 6.55854 10.3164 7.12109 10.8789C7.68364 11.4415 8 12.2044 8 13V14C8 14.2652 8.10549 14.5195 8.29297 14.707C8.4571 14.8711 8.67241 14.9724 8.90137 14.9951L9.2959 15.0146C9.98278 15.0828 10.6287 15.3866 11.1211 15.8789C11.6836 16.4415 12 17.2044 12 18V21C12.6877 21 13.3565 20.9195 14 20.7734V17C14 16.2043 14.3163 15.4415 14.8789 14.8789C15.4415 14.3163 16.2043 14 17 14H20.7744C20.9205 13.3566 21 12.6876 21 12C21 10.9479 20.8181 9.93847 20.4863 9H18C17.4523 9 17.0001 9.45237 17 10C17 10.7956 16.6836 11.5585 16.1211 12.1211C15.5585 12.6837 14.7956 13 14 13C12.3478 13 11.0001 11.6522 11 10C11 9.73489 10.8945 9.48046 10.707 9.29297C10.5195 9.10549 10.2652 9 10 9C8.93917 9 7.92201 8.57822 7.17188 7.82812C6.48883 7.14503 6.0787 6.24049 6.01074 5.2832ZM3 12C3 16.2829 5.99241 19.8637 10 20.7734V18C10 17.7348 9.89451 17.4805 9.70703 17.293C9.5429 17.1289 9.32761 17.0276 9.09863 17.0049L8.7041 16.9854C8.01724 16.9172 7.37128 16.6134 6.87891 16.1211C6.31635 15.5585 6 14.7956 6 14V13C6 12.7348 5.89451 12.4805 5.70703 12.293C5.51955 12.1055 5.2651 12.0001 5 12H3ZM17 16C16.7348 16 16.4805 16.1054 16.293 16.293C16.1054 16.4805 16 16.7348 16 17V20.0615C17.7577 19.1877 19.1888 17.7577 20.0625 16H17ZM12 3C10.5628 3 9.20516 3.33844 8 3.9375V5C8.00004 5.53033 8.21096 6.03904 8.58594 6.41406C8.961 6.78909 9.4696 7 10 7C10.7956 7 11.5585 7.31635 12.1211 7.87891C12.6836 8.44146 13 9.20445 13 10C13.0001 10.5476 13.4523 11 14 11C14.2652 11 14.5195 10.8945 14.707 10.707C14.8945 10.5195 15 10.2651 15 10C15.0001 8.3478 16.3478 7 18 7H19.4834C17.8688 4.5883 15.1202 3 12 3Z" fill="white"/>
</svg>
