<svg width="24" height="24" viewBox="0 0 24 24" fill="none" xmlns="http://www.w3.org/2000/svg">
<path d="M10.029 4.28502C9.72551 4.10292 9.37913 4.00462 9.02523 4.00016C8.67133 3.99569 8.32259 4.08522 8.0146 4.2596C7.70661 4.43398 7.45041 4.68697 7.27216 4.99274C7.09391 5.2985 7 5.64609 7 6.00002V18C7 18.3539 7.09391 18.7015 7.27216 19.0073C7.45041 19.3131 7.70661 19.5661 8.0146 19.7404C8.32259 19.9148 8.67133 20.0043 9.02523 19.9999C9.37913 19.9954 9.72551 19.8971 10.029 19.715L20.026 13.717C20.3228 13.5397 20.5685 13.2885 20.7393 12.9879C20.91 12.6873 20.9999 12.3476 21.0002 12.0019C21.0005 11.6562 20.9112 11.3163 20.741 11.0154C20.5708 10.7145 20.3255 10.4629 20.029 10.285L10.029 4.28502Z" fill="white"/>
</svg>
