<svg width="24" height="24" viewBox="0 0 24 24" fill="none" xmlns="http://www.w3.org/2000/svg">
<path d="M3 11C3.55228 11 4 11.4477 4 12C4 14.1217 4.84248 16.1569 6.34277 17.6572C7.84237 19.1568 9.8764 19.9982 11.9971 19.999C14.2548 19.9903 16.4217 19.1102 18.0449 17.541L18.5859 17H16C15.4477 17 15 16.5523 15 16C15 15.4477 15.4477 15 16 15H21C21.0563 15 21.1113 15.0057 21.165 15.0146C21.1738 15.0161 21.1827 15.0169 21.1914 15.0186L21.2012 15.0205C21.211 15.0225 21.2207 15.025 21.2305 15.0273C21.251 15.0322 21.2717 15.0368 21.292 15.043C21.3408 15.0578 21.3873 15.0778 21.4326 15.0996C21.4466 15.1063 21.4609 15.1127 21.4746 15.1201C21.6203 15.1989 21.7441 15.3125 21.835 15.4502C21.8597 15.4877 21.8812 15.5266 21.9004 15.5664C21.9222 15.6116 21.9412 15.6584 21.9561 15.707C21.9622 15.727 21.9669 15.7473 21.9717 15.7676C21.9895 15.8422 22 15.9199 22 16V21C22 21.5523 21.5523 22 21 22C20.4477 22 20 21.5523 20 21V18.4141L19.4473 18.9668L19.0537 19.3301C17.1076 21.038 14.6048 21.9902 12.0039 22H12C9.34784 22 6.80407 20.9467 4.92871 19.0713C3.05335 17.1959 2 14.6522 2 12C2 11.4477 2.44772 11 3 11Z" fill="white"/>
<path d="M12 2C14.6522 2 17.1959 3.05335 19.0713 4.92871C20.9466 6.80407 22 9.34784 22 12C22 12.5523 21.5523 13 21 13C20.4477 13 20 12.5523 20 12C20 9.87827 19.1575 7.84306 17.6572 6.34277C16.1574 4.84295 14.123 4.00052 12.002 4C9.74462 4.00896 7.57808 4.89 5.95508 6.45898L5.41406 7H8C8.55228 7 9 7.44772 9 8C9 8.55228 8.55228 9 8 9H3C2.94333 9 2.88808 8.99343 2.83398 8.98438C2.82358 8.98263 2.81309 8.98157 2.80273 8.97949C2.79123 8.97719 2.77991 8.97437 2.76855 8.97168C2.74799 8.9668 2.72732 8.96225 2.70703 8.95605C2.65838 8.94116 2.61159 8.92219 2.56641 8.90039C2.52662 8.88123 2.48768 8.8597 2.4502 8.83496C2.31255 8.74414 2.19887 8.62031 2.12012 8.47461C2.11269 8.46086 2.10635 8.44663 2.09961 8.43262C2.0778 8.38731 2.05783 8.34077 2.04297 8.29199C2.0303 8.25034 2.02176 8.20773 2.01465 8.16504C2.00571 8.11129 2 8.05628 2 8V3C2 2.44772 2.44772 2 3 2C3.55228 2 4 2.44772 4 3V5.58594L4.55273 5.0332L4.94629 4.66992C6.89242 2.96204 9.39524 2.00982 11.9961 2H12Z" fill="white"/>
</svg>
