<svg width="24" height="24" viewBox="0 0 24 24" fill="none" xmlns="http://www.w3.org/2000/svg">
<path d="M11 18C11.5523 18 12 18.4477 12 19C12 19.5523 11.5523 20 11 20H3C2.44772 20 2 19.5523 2 19C2 18.4477 2.44772 18 3 18H11Z" fill="white"/>
<path fill-rule="evenodd" clip-rule="evenodd" d="M21 4C21.5523 4 22 4.44772 22 5V16C22 18.2091 20.2091 20 18 20C15.7909 20 14 18.2091 14 16C14 13.7909 15.7909 12 18 12C18.7288 12 19.4116 12.1956 20 12.5361V5C20 4.44772 20.4477 4 21 4ZM18 14C16.8954 14 16 14.8954 16 16C16 17.1046 16.8954 18 18 18C19.1046 18 20 17.1046 20 16C20 14.8954 19.1046 14 18 14Z" fill="white"/>
<path d="M11 11C11.5523 11 12 11.4477 12 12C12 12.5523 11.5523 13 11 13H3C2.44772 13 2 12.5523 2 12C2 11.4477 2.44772 11 3 11H11Z" fill="white"/>
<path d="M16 4C16.5523 4 17 4.44772 17 5C17 5.55228 16.5523 6 16 6H3C2.44772 6 2 5.55228 2 5C2 4.44772 2.44772 4 3 4H16Z" fill="white"/>
</svg>
