<svg width="24" height="24" viewBox="0 0 24 24" fill="none" xmlns="http://www.w3.org/2000/svg">
<path d="M3.65708 12.9427L7.77876 14.4509C8.61504 14.7685 9.27212 15.4234 9.5708 16.237L11.0642 20.3451C11.3827 21.2183 12.6372 21.2183 12.9358 20.3451L14.4292 16.237C14.7478 15.4234 15.4049 14.7685 16.2212 14.4509L20.3429 12.9427C21.219 12.6251 21.219 11.3749 20.3429 11.0573L16.2212 9.54906C15.385 9.23153 14.7279 8.61632 14.4292 7.76295L12.9358 3.65491C12.6173 2.7817 11.3628 2.7817 11.0642 3.65491L9.5708 7.76295C9.25221 8.57663 8.59513 9.23153 7.77876 9.54906L3.65708 11.0573C2.78097 11.3749 2.78097 12.6251 3.65708 12.9427Z" fill="white"/>
</svg>
