<svg width="24" height="24" viewBox="0 0 24 24" fill="none" xmlns="http://www.w3.org/2000/svg">
<path d="M14.293 9.29297C14.6835 8.90244 15.3165 8.90244 15.707 9.29297C16.0975 9.68349 16.0976 10.3165 15.707 10.707L11.707 14.707C11.3165 15.0976 10.6835 15.0975 10.293 14.707L8.29297 12.707C7.90244 12.3165 7.90244 11.6835 8.29297 11.293C8.68349 10.9024 9.31651 10.9024 9.70703 11.293L11 12.5859L14.293 9.29297Z" fill="white"/>
<path fill-rule="evenodd" clip-rule="evenodd" d="M12 1C12.5168 1 13.0163 1.18483 13.4092 1.52051L13.418 1.52734C15.0575 2.96066 17.323 4 19 4C19.5303 4 20.039 4.21101 20.4141 4.58594C20.7889 4.96089 20.9999 5.46983 21 6V13C20.9999 15.7639 20.0209 17.8894 18.4463 19.5049C16.8989 21.0924 14.8203 22.1446 12.6689 22.8945L12.6611 22.8975C12.2331 23.0425 11.7687 23.0373 11.3438 22.8848C11.3379 22.8827 11.332 22.8809 11.3262 22.8789C11.3247 22.8784 11.3228 22.8784 11.3213 22.8779C9.17214 22.1335 7.09954 21.085 5.55566 19.5039C3.97927 17.8894 3.0001 15.7638 3 13V6C3.00012 5.46983 3.2111 4.96088 3.58594 4.58594C3.96099 4.21101 4.46967 4 5 4C6.6763 4 8.95155 2.95157 10.582 1.52734L10.5908 1.52051C10.9837 1.18483 11.4832 1 12 1ZM12 3C11.9595 3 11.9204 3.01472 11.8896 3.04102L11.8887 3.04004C10.0393 4.65235 7.31999 6 5 6V13C5.0001 15.2355 5.77068 16.8612 6.98633 18.1064C8.22944 19.3795 9.98367 20.3001 11.9961 20.9951C12.0033 20.9976 12.0114 20.9993 12.0186 21.002C14.0235 20.3023 15.7728 19.3814 17.0137 18.1084C18.2289 16.8616 18.9999 15.2356 19 13V6C16.6806 6 13.9706 4.66332 12.1104 3.04004C12.0796 3.01395 12.0403 3 12 3Z" fill="white"/>
</svg>
