<svg width="24" height="24" viewBox="0 0 24 24" fill="none" xmlns="http://www.w3.org/2000/svg">
<path d="M21 15.2999C21 17.3986 19.2987 19.0999 17.2 19.0999C15.1013 19.0999 13.4 17.3986 13.4 15.2999C13.4 13.2012 15.1013 11.4999 17.2 11.4999C17.8923 11.4999 18.541 11.6857 19.1 12.0092V4.07058L9.6 5.65422V17.1999C9.6 19.2986 7.89868 20.9999 5.8 20.9999C3.70132 20.9999 2 19.2986 2 17.1999C2 15.1012 3.70132 13.3999 5.8 13.3999C6.49232 13.3999 7.14098 13.5857 7.7 13.9092V4.84988C7.7 4.38548 8.03606 3.98921 8.49414 3.91286L19.8941 2.01286C20.1695 1.96706 20.4512 2.04488 20.6642 2.22532C20.8771 2.40582 21 2.67071 21 2.94988V15.2999Z" fill="white"/>
</svg>
