<svg width="24" height="24" viewBox="0 0 24 24" fill="none" xmlns="http://www.w3.org/2000/svg">
<path d="M20.998 12.0003C20.998 9.61397 20.0504 7.32478 18.3633 5.63706C17.9728 5.24647 17.9727 4.61346 18.3633 4.22299C18.7539 3.83256 19.3869 3.83242 19.7773 4.22299C21.8395 6.28579 22.998 9.08355 22.998 12.0003C22.998 14.9169 21.8393 17.714 19.7773 19.7767C19.387 20.1672 18.7539 20.1678 18.3633 19.7777C17.9727 19.3872 17.9728 18.7532 18.3633 18.3626C20.0502 16.675 20.998 14.3865 20.998 12.0003ZM10.375 4.21909C10.6752 3.97895 11.0871 3.93245 11.4336 4.09897C11.7798 4.26558 12 4.6161 12 5.00034V19.0003C11.9999 19.3845 11.7799 19.7352 11.4336 19.9017C11.0871 20.0682 10.6752 20.0207 10.375 19.7806L5.64941 16.0003H2C1.44784 16.0003 1.0002 15.5525 1 15.0003V9.00034C1 8.44805 1.44772 8.00034 2 8.00034H5.64844L10.375 4.21909ZM16.0039 11.9955C16.0039 10.9349 15.5827 9.91742 14.833 9.16733C14.4426 8.77683 14.4427 8.14375 14.833 7.75327C15.2236 7.3628 15.8566 7.36268 16.2471 7.75327C17.3719 8.87843 18.0039 10.4045 18.0039 11.9955C18.0038 13.5862 17.3717 15.1116 16.2471 16.2367C15.8567 16.6272 15.2236 16.6279 14.833 16.2376C14.4424 15.8472 14.4425 15.2132 14.833 14.8226C15.5826 14.0726 16.0038 13.0558 16.0039 11.9955Z" fill="white"/>
</svg>
