<svg width="24" height="24" viewBox="0 0 24 24" fill="none" xmlns="http://www.w3.org/2000/svg">
<path d="M20 4C21.6569 4 23 5.34315 23 7V17C23 18.6569 21.6569 20 20 20H4C2.34315 20 1 18.6569 1 17V7C1 5.34315 2.34315 4 4 4H20ZM4 6C3.44772 6 3 6.44772 3 7V17C3 17.5523 3.44772 18 4 18H20C20.5523 18 21 17.5523 21 17V7C21 6.44772 20.5523 6 20 6H4ZM8.08203 7.83496C9.05941 7.83497 9.91033 8.08795 10.6348 8.54785C10.8303 8.66285 11.0264 8.905 11.0264 9.25C11.0261 9.70969 10.658 10.0663 10.1982 10.0664C10.0257 10.0664 9.88702 10.02 9.74902 9.93945C9.16267 9.59459 8.61047 9.39941 8.05859 9.39941C7.38036 9.39954 7.02441 9.70966 7.02441 10.1006V10.123C7.02441 10.652 7.36924 10.8251 8.76074 11.1816C10.3936 11.6071 11.3135 12.1938 11.3135 13.5967V13.6191C11.3135 15.2175 10.0947 16.1151 8.3584 16.1152C7.3006 16.1152 6.23088 15.7932 5.33398 15.1494C5.13858 15.0115 5.00013 14.7583 5 14.4824C5 14.0224 5.36813 13.665 5.82812 13.665C6.05794 13.6651 6.21902 13.7457 6.33398 13.8262C6.94348 14.2747 7.61058 14.5508 8.39258 14.5508C9.11703 14.5508 9.55371 14.2635 9.55371 13.792V13.7686C9.55352 13.3204 9.27764 13.09 7.93262 12.7451C6.31112 12.3311 5.26465 11.8827 5.26465 10.2842V10.2617C5.26465 8.80122 6.43753 7.83496 8.08203 7.83496ZM15.5 8C16.4283 8 17.3182 8.36901 17.9746 9.02539C18.631 9.68177 19 10.5717 19 11.5V12.5C19 13.4283 18.631 14.3182 17.9746 14.9746C17.3182 15.631 16.4283 16 15.5 16H14.5C14.1022 16 13.7208 15.8419 13.4395 15.5605C13.1581 15.2792 13 14.8978 13 14.5V9.5C13 9.10218 13.1581 8.72076 13.4395 8.43945C13.7208 8.15815 14.1022 8 14.5 8H15.5ZM15 14H15.5C15.8978 14 16.2792 13.8419 16.5605 13.5605C16.8419 13.2792 17 12.8978 17 12.5V11.5C17 11.1022 16.8419 10.7208 16.5605 10.4395C16.2792 10.1581 15.8978 10 15.5 10H15V14Z" fill="white"/>
</svg>
