<svg width="24" height="24" viewBox="0 0 24 24" fill="none" xmlns="http://www.w3.org/2000/svg">
<path d="M4 18.0002C5.10457 18.0002 6 18.8956 6 20.0002C5.99989 21.1046 5.1045 22.0002 4 22.0002C2.8955 22.0002 2.00011 21.1046 2 20.0002C2 18.8956 2.89543 18.0002 4 18.0002Z" fill="white"/>
<path fill-rule="evenodd" clip-rule="evenodd" d="M10.124 3.31365C10.7316 1.58431 13.0939 1.59472 13.8105 3.15544L13.875 3.31267L13.876 3.31365L15.3691 7.42107L15.373 7.43279C15.5634 7.97646 15.9835 8.38939 16.5762 8.61443L20.6865 10.1183C22.4388 10.7554 22.4377 13.2438 20.6855 13.881L20.6865 13.882L16.583 15.382L16.584 15.383C16.0301 15.5984 15.5808 16.0449 15.3633 16.5939L13.876 20.6867L13.875 20.6857C13.2479 22.4716 10.7509 22.4028 10.125 20.6877L10.124 20.6867L8.63184 16.5822L8.54785 16.3869C8.32546 15.9423 7.92725 15.5771 7.42383 15.3859L3.31348 13.882C1.56248 13.2444 1.5623 10.7557 3.31348 10.1183L7.41602 8.61736L7.62012 8.52556C8.07966 8.28814 8.44558 7.88563 8.63574 7.40544L10.124 3.31365ZM10.5107 8.10466L10.5068 8.11638L10.502 8.1281C10.0811 9.20252 9.21754 10.0631 8.1416 10.4816L8.13184 10.4845L8.12207 10.4885L4.00098 11.9963L4 12.0031L4.00098 12.0041L8.12207 13.5119L8.13379 13.5158C9.16236 13.9064 9.99703 14.6906 10.4287 15.6896L10.5098 15.8927L10.5107 15.8957L12 19.9924L13.4893 15.8957L13.4932 15.884L13.498 15.8722C13.9189 14.7978 14.7824 13.9373 15.8584 13.5187L15.8682 13.5158L15.8779 13.5119L19.999 12.0031L20 12.0002C20 11.9988 19.9992 11.9974 19.999 11.9963L15.8779 10.4885L15.8662 10.4845C14.7866 10.0746 13.8925 9.25659 13.4854 8.09392L12 4.00701L10.5107 8.10466Z" fill="white"/>
<path d="M20.1357 0.255052C20.2519 -0.084529 20.7404 -0.084529 20.8643 0.255052L21.4443 1.85271C21.5605 2.18441 21.8165 2.4236 22.1416 2.54704L23.7441 3.13298C24.0848 3.25647 24.0848 3.7429 23.7441 3.86638L22.1416 4.45329C21.8241 4.57679 21.5682 4.83122 21.4443 5.14763L20.8643 6.74529C20.7481 7.08487 20.2596 7.08487 20.1357 6.74529L19.5557 5.14763C19.4395 4.83122 19.1836 4.57679 18.8584 4.45329L17.2559 3.86638C16.9152 3.7429 16.9152 3.25647 17.2559 3.13298L18.8584 2.54704C19.1758 2.4236 19.4317 2.169 19.5557 1.85271L20.1357 0.255052Z" fill="white"/>
</svg>
