<svg width="24" height="24" viewBox="0 0 24 24" fill="none" xmlns="http://www.w3.org/2000/svg">
<path d="M21 3C21.5523 3 22 3.44772 22 4V20C22 20.5523 21.5523 21 21 21C20.4477 21 20 20.5523 20 20V4C20 3.44772 20.4477 3 21 3Z" fill="white"/>
<path d="M5.02539 4C5.37924 4.00449 5.72585 4.10309 6.0293 4.28516L16.0293 10.2852C16.3256 10.463 16.5711 10.7148 16.7412 11.0156C16.9113 11.3165 17.0003 11.6564 17 12.002C16.9997 12.3476 16.91 12.6877 16.7393 12.9883C16.5686 13.2886 16.3229 13.5396 16.0264 13.7168L6.0293 19.7148C5.72585 19.8969 5.37924 19.9955 5.02539 20C4.67149 20.0045 4.32264 19.9146 4.01465 19.7402C3.70668 19.5659 3.4507 19.3126 3.27246 19.0068C3.09429 18.7011 3 18.3538 3 18V6C3 5.64615 3.09429 5.29888 3.27246 4.99316C3.4507 4.68741 3.70667 4.43415 4.01465 4.25977C4.32264 4.08538 4.67149 3.99553 5.02539 4Z" fill="white"/>
</svg>
