<svg width="24" height="24" viewBox="0 0 24 24" fill="none" xmlns="http://www.w3.org/2000/svg">
<path d="M15 11C15.5523 11 16 11.4477 16 12C16 12.5523 15.5523 13 15 13H10C9.44771 13 9 12.5523 9 12C9 11.4477 9.44771 11 10 11H15Z" fill="white"/>
<path d="M15 7C15.5523 7 16 7.44772 16 8C16 8.55228 15.5523 9 15 9H10C9.44771 9 9 8.55228 9 8C9 7.44772 9.44771 7 10 7H15Z" fill="white"/>
<path fill-rule="evenodd" clip-rule="evenodd" d="M17 2C17.7957 2 18.5585 2.3163 19.1211 2.87891C19.6837 3.44151 20 4.20435 20 5V16H21C21.5304 16 22.039 16.2109 22.4141 16.5859C22.7891 16.961 23 17.4696 23 18V19C23 19.7957 22.6837 20.5585 22.1211 21.1211C21.5585 21.6837 20.7957 22 20 22H8C7.20435 22 6.44151 21.6837 5.87891 21.1211C5.3163 20.5585 5 19.7957 5 19V9H3C2.46957 9 1.96101 8.78913 1.58594 8.41406C1.21086 8.03899 1 7.53043 1 7V5C1 4.20435 1.3163 3.44152 1.87891 2.87891C2.41681 2.341 3.13786 2.03131 3.89551 2.00488C3.92984 2.00132 3.96473 2 4 2H17ZM6.82422 4C6.93709 4.31856 7 4.65556 7 5V19C7 19.2652 7.10543 19.5195 7.29297 19.707C7.48051 19.8946 7.73478 20 8 20C8.26522 20 8.51949 19.8946 8.70703 19.707C8.89457 19.5195 9 19.2652 9 19V18C9 17.4696 9.21087 16.961 9.58594 16.5859C9.96101 16.2109 10.4696 16 11 16H18V5C18 4.73478 17.8946 4.48051 17.707 4.29297C17.5195 4.10543 17.2652 4 17 4H6.82422ZM11 19C11 19.3444 10.937 19.6814 10.8242 20H20C20.2652 20 20.5195 19.8946 20.707 19.707C20.8946 19.5195 21 19.2652 21 19V18H11V19ZM4 4C3.73478 4 3.4805 4.10543 3.29297 4.29297C3.10543 4.4805 3 4.73478 3 5V7H5V5C5 4.73478 4.89457 4.4805 4.70703 4.29297C4.5195 4.10543 4.26522 4 4 4Z" fill="white"/>
</svg>
