<svg width="24" height="24" viewBox="0 0 24 24" fill="none" xmlns="http://www.w3.org/2000/svg">
<path fill-rule="evenodd" clip-rule="evenodd" d="M15.5347 1.64453C18.5123 1.64481 20.9263 4.0595 20.9263 7.03711C20.9259 10.0144 18.512 12.4284 15.5347 12.4287C15.3711 12.4287 15.2093 12.4195 15.0494 12.4053L8.20757 17.627C7.86161 17.8914 7.43209 18.0219 6.9976 17.9932C6.80033 17.9801 6.60912 17.9327 6.42925 17.8584C6.42061 18.0476 6.44251 18.2634 6.51128 18.498C6.69411 19.1214 7.10892 19.5393 7.60112 19.624C8.17445 19.7225 8.78659 19.4578 9.71245 18.9453C10.1315 18.7133 10.6233 18.4303 11.1207 18.2148C11.6265 17.9958 12.2068 17.8145 12.8394 17.8145C14.309 17.8145 15.496 18.3563 16.4859 19.0234C16.8979 19.3012 17.0075 19.8603 16.73 20.2725C16.4522 20.6846 15.8922 20.7934 15.48 20.5156C14.6736 19.9722 13.8342 19.6143 12.8394 19.6143C12.5477 19.6143 12.2236 19.6985 11.8365 19.8662C11.4409 20.0376 11.049 20.2634 10.5845 20.5205C9.74304 20.9863 8.58437 21.6197 7.29643 21.3984C5.92764 21.1631 5.09562 20.0675 4.78374 19.0039C4.56071 18.2426 4.55293 17.3059 4.93999 16.5352C4.73882 16.2647 4.61559 15.9422 4.5894 15.6025C4.5565 15.1746 4.67771 14.7487 4.9312 14.4023L10.147 7.27441C10.1436 7.19574 10.1421 7.11662 10.1421 7.03711C10.1421 4.05933 12.5569 1.64453 15.5347 1.64453ZM6.38335 15.4629L7.11577 16.1963L12.9312 11.7578C11.997 11.2416 11.2335 10.4566 10.7427 9.50684L6.38335 15.4629ZM15.5347 3.44531C13.551 3.44531 11.9429 5.05344 11.9429 7.03711C11.9433 9.02047 13.5513 10.6289 15.5347 10.6289C17.5179 10.6286 19.1261 9.0203 19.1265 7.03711C19.1265 5.05361 17.5181 3.44559 15.5347 3.44531Z" fill="white"/>
</svg>
