<svg width="24" height="24" viewBox="0 0 24 24" fill="none" xmlns="http://www.w3.org/2000/svg">
<path d="M12.6641 4.78022C13.1711 4.65305 13.6858 4.96168 13.8135 5.46869C13.9409 5.97591 13.6331 6.49136 13.126 6.61908L9.5791 7.50971V18.2665L9.57324 18.4609C9.47197 20.4633 7.81662 22.0556 5.78906 22.0556C3.69657 22.0553 2.00011 20.3591 2 18.2665C2.00028 16.1742 3.69667 14.4778 5.78906 14.4775C6.47916 14.4775 7.1263 14.662 7.68359 14.9843V6.7724C7.68382 6.33849 7.97958 5.9594 8.40039 5.85346L12.6641 4.78022Z" fill="white"/>
<path d="M19.0518 10.2138C19.5749 10.2138 19.9999 10.639 20 11.1621V16.498C20 16.5405 19.9957 16.5829 19.9902 16.624C19.8604 18.5991 18.218 20.1611 16.21 20.1611C14.1175 20.1608 12.4211 18.4645 12.4209 16.372C12.4212 14.2796 14.1175 12.5822 16.21 12.582C16.9006 12.582 17.5479 12.768 18.1055 13.0908V11.1621C18.1056 10.6392 18.5289 10.2142 19.0518 10.2138Z" fill="white"/>
<path d="M18.584 1.29096C18.7168 0.902933 19.2744 0.902932 19.416 1.29096L20.0801 3.11713C20.2129 3.4962 20.5044 3.77 20.876 3.91108L22.708 4.581C23.0973 4.72213 23.0973 5.27774 22.708 5.41889L20.876 6.08881C20.5133 6.22988 20.2217 6.52133 20.0801 6.88276L19.416 8.70893C19.2833 9.09702 18.7256 9.09702 18.584 8.70893L17.9199 6.88276C17.7871 6.52133 17.4956 6.22988 17.124 6.08881L15.292 5.41889C14.9027 5.27774 14.9027 4.72213 15.292 4.581L17.124 3.91108C17.4867 3.77 17.7783 3.47858 17.9199 3.11713L18.584 1.29096Z" fill="white"/>
</svg>
