<svg width="24" height="24" viewBox="0 0 24 24" fill="none" xmlns="http://www.w3.org/2000/svg">
<path fill-rule="evenodd" clip-rule="evenodd" d="M12 8C14.2092 8.00001 16 9.79087 16 12C16 14.2091 14.2092 16 12 16C9.7909 16 8.00004 14.2091 8.00004 12C8.00004 9.79086 9.7909 8 12 8ZM12 10C10.8955 10 10 10.8954 10 12C10 13.1046 10.8955 14 12 14C13.1046 14 14 13.1046 14 12C14 10.8954 13.1046 10 12 10Z" fill="white"/>
<path fill-rule="evenodd" clip-rule="evenodd" d="M12.001 1.01758C12.8319 1.01771 13.6334 1.32765 14.2481 1.88672C14.7859 2.37599 15.1477 3.02549 15.2823 3.73438L15.3262 4.04199V4.04785C15.3452 4.2621 15.4157 4.46902 15.5313 4.65039C15.647 4.83171 15.805 4.98329 15.9913 5.09082C16.1776 5.19827 16.3877 5.25914 16.6026 5.26855C16.8174 5.27789 17.0317 5.23528 17.2266 5.14453L17.2364 5.14062C17.9914 4.798 18.8472 4.74778 19.6368 5.00098C20.4263 5.25431 21.094 5.79275 21.5088 6.51074C21.9236 7.22882 22.0569 8.07612 21.8819 8.88672C21.7068 9.69737 21.2357 10.4145 20.5616 10.8975L20.5538 10.9023C20.3776 11.0259 20.2341 11.1909 20.1348 11.3818C20.0356 11.5727 19.9834 11.7849 19.9834 12C19.9835 12.215 20.0356 12.4274 20.1348 12.6182C20.2092 12.761 20.3086 12.889 20.4278 12.9961L20.5538 13.0967L20.5616 13.1025C21.2356 13.5855 21.7068 14.3018 21.8819 15.1123C22.0569 15.9229 21.9237 16.7702 21.5088 17.4883C21.094 18.2064 20.4264 18.7447 19.6368 18.998C18.8472 19.2513 17.9914 19.201 17.2364 18.8584L17.2266 18.8545C17.0317 18.7638 16.8174 18.7211 16.6026 18.7305C16.3876 18.7399 16.1776 18.8007 15.9913 18.9082C15.8048 19.0158 15.647 19.1672 15.5313 19.3486C15.4156 19.5301 15.3452 19.7368 15.3262 19.9512V19.958C15.2475 20.7851 14.8627 21.5532 14.2481 22.1123C13.6334 22.6714 12.8319 22.9813 12.001 22.9814C11.17 22.9814 10.3688 22.6713 9.75395 22.1123C9.13919 21.5532 8.75455 20.7852 8.67582 19.958L8.67484 19.9512C8.65593 19.7368 8.58543 19.5301 8.46977 19.3486C8.35402 19.1672 8.19621 19.0158 8.00981 18.9082C7.82338 18.8007 7.61348 18.7399 7.39848 18.7305C7.18356 18.7211 6.96945 18.7637 6.77445 18.8545L6.76469 18.8584C6.00969 19.2012 5.15389 19.2511 4.3643 18.998C3.57464 18.7448 2.90716 18.2063 2.49223 17.4883C2.07732 16.7701 1.94414 15.923 2.11918 15.1123C2.29427 14.3017 2.76527 13.5855 3.43949 13.1025L3.44731 13.0967C3.62323 12.9732 3.76705 12.8089 3.86625 12.6182C3.96544 12.4274 4.01754 12.215 4.01762 12C4.01762 11.785 3.96535 11.5726 3.86625 11.3818C3.76704 11.191 3.62332 11.0259 3.44731 10.9023L3.43852 10.8965C2.76524 10.4133 2.2958 9.69682 2.12113 8.88672C1.94651 8.07655 2.07874 7.2304 2.4932 6.5127C2.90767 5.79501 3.57433 5.25662 4.36332 5.00293C5.05343 4.78113 5.79458 4.79085 6.47465 5.02539L6.76273 5.13965L6.7725 5.14453C6.96742 5.23527 7.18173 5.27788 7.39652 5.26855C7.61137 5.25911 7.82156 5.19825 8.00785 5.09082C8.19422 4.98325 8.35208 4.83181 8.46781 4.65039C8.58353 4.46896 8.65392 4.2622 8.67289 4.04785C8.67657 4.00631 8.68295 3.96555 8.69145 3.92578C8.79358 3.14283 9.16794 2.41966 9.75395 1.88672C10.3688 1.32768 11.17 1.01758 12.001 1.01758ZM12.001 3.01758C11.6677 3.01758 11.3463 3.14207 11.0996 3.36621C10.853 3.59048 10.6987 3.89865 10.667 4.23047C10.6639 4.26379 10.6587 4.29693 10.6524 4.3291C10.5925 4.82586 10.4239 5.30397 10.1543 5.72656C9.86583 6.17877 9.47244 6.55513 9.00785 6.82324C8.54323 7.09132 8.02031 7.2431 7.48441 7.2666C6.94848 7.29003 6.41407 7.18447 5.92777 6.95801C5.62756 6.82527 5.28839 6.80677 4.97563 6.90723C4.65922 7.00896 4.39193 7.22495 4.22563 7.5127C4.05934 7.80064 4.00615 8.14078 4.07621 8.46582C4.14638 8.79058 4.33459 9.07774 4.60453 9.27148C5.03983 9.5789 5.39478 9.98609 5.64066 10.459C5.888 10.9348 6.01762 11.4637 6.01762 12C6.01754 12.5361 5.88791 13.0644 5.64066 13.54C5.39467 14.0132 5.03816 14.4201 4.60258 14.7275L4.60356 14.7285C4.33331 14.9222 4.14455 15.2092 4.07426 15.5342C4.00404 15.8594 4.05722 16.2002 4.22367 16.4883C4.39016 16.7761 4.658 16.9922 4.97465 17.0938C5.29124 17.1952 5.63478 17.1754 5.93754 17.0381C6.42157 16.8141 6.95245 16.7093 7.48539 16.7324C8.02138 16.7558 8.54407 16.9078 9.00883 17.1758C9.4736 17.4439 9.86771 17.8201 10.1563 18.2725C10.4436 18.723 10.618 19.2364 10.6661 19.7686C10.6977 20.1004 10.853 20.4085 11.0996 20.6328C11.3463 20.857 11.6677 20.9814 12.001 20.9814C12.3343 20.9813 12.6558 20.857 12.9024 20.6328C13.1489 20.4085 13.3034 20.1004 13.335 19.7686C13.3831 19.2365 13.5584 18.7239 13.8457 18.2734C14.1343 17.8211 14.5275 17.4449 14.9922 17.1768C15.4569 16.9087 15.9797 16.7559 16.5157 16.7324C17.0483 16.7092 17.5787 16.8144 18.0625 17.0381L18.1778 17.084C18.4508 17.1785 18.7492 17.1827 19.0264 17.0938C19.3429 16.9921 19.611 16.7761 19.7774 16.4883C19.9438 16.2002 19.997 15.8594 19.9268 15.5342C19.8566 15.2094 19.6675 14.9222 19.3975 14.7285C18.9621 14.4211 18.6063 14.013 18.3604 13.54C18.1131 13.0643 17.9835 12.5362 17.9834 12C17.9834 11.4636 18.1129 10.9349 18.3604 10.459C18.6078 9.98312 18.9663 9.57369 19.4053 9.26562C19.6714 9.07197 19.8573 8.78672 19.9268 8.46484C19.997 8.1398 19.9436 7.79973 19.7774 7.51172C19.6111 7.22386 19.3429 7.00799 19.0264 6.90625C18.7096 6.80465 18.3655 6.82445 18.0625 6.96191C17.5788 7.18549 17.0482 7.28978 16.5157 7.2666C15.9798 7.24318 15.4568 7.0912 14.9922 6.82324C14.5277 6.5552 14.1343 6.17867 13.8457 5.72656C13.5573 5.27434 13.3814 4.75891 13.334 4.22461C13.301 3.89551 13.1471 3.58892 12.9024 3.36621C12.6558 3.142 12.3343 3.01771 12.001 3.01758Z" fill="white"/>
</svg>
