<svg width="24" height="24" viewBox="0 0 24 24" fill="none" xmlns="http://www.w3.org/2000/svg">
<path d="M10.0002 13.0001C10.0588 13.0001 10.1161 13.006 10.172 13.0157C10.2121 13.0227 10.252 13.0312 10.2912 13.0431C10.3108 13.049 10.3297 13.0565 10.3488 13.0636C10.3585 13.0672 10.3684 13.0704 10.3781 13.0743C10.3936 13.0807 10.4088 13.0877 10.424 13.0948C10.4687 13.1158 10.512 13.1402 10.5539 13.1681C10.6654 13.2425 10.7613 13.3383 10.8351 13.4503C10.8803 13.5187 10.915 13.5918 10.9416 13.6671C10.9463 13.6805 10.952 13.6935 10.9562 13.7071C10.9624 13.7274 10.967 13.7481 10.9718 13.7687C10.9895 13.843 11.0002 13.9204 11.0002 14.0001V20.0001C11.0001 20.5523 10.5524 21.0001 10.0002 21.0001C9.4479 21.0001 9.0002 20.5524 9.00016 20.0001V16.4142L3.70719 21.7071C3.31669 22.0976 2.68365 22.0976 2.29313 21.7071C1.90261 21.3166 1.90262 20.6836 2.29313 20.2931L7.58609 15.0001H4.00016C3.4479 15.0001 3.0002 14.5524 3.00016 14.0001C3.00016 13.4478 3.44787 13.0001 4.00016 13.0001H10.0002Z" fill="white"/>
<path d="M20.2931 2.29308C20.6836 1.90255 21.3167 1.90255 21.7072 2.29308C22.0976 2.68361 22.0977 3.31664 21.7072 3.70714L16.4142 9.00011H20.0002C20.5524 9.00016 21.0002 9.44786 21.0002 10.0001C21.0001 10.5523 20.5524 11.0001 20.0002 11.0001H14.0002L13.8976 10.9952C13.8761 10.993 13.8552 10.988 13.8341 10.9845C13.8237 10.9827 13.8132 10.9817 13.8029 10.9796C13.7914 10.9773 13.7801 10.9745 13.7687 10.9718C13.7481 10.9669 13.7275 10.9624 13.7072 10.9562C13.6936 10.952 13.6805 10.9462 13.6671 10.9415C13.6498 10.9354 13.6325 10.9291 13.6154 10.922C13.6065 10.9183 13.5978 10.9142 13.589 10.9103C13.5414 10.8888 13.4948 10.8644 13.4504 10.8351C13.2578 10.7081 13.1116 10.5166 13.0431 10.2911C13.0381 10.2744 13.0346 10.2573 13.0304 10.2403C13.0114 10.1633 13.0002 10.083 13.0002 10.0001V4.00011C13.0002 3.44782 13.4479 3.00011 14.0002 3.00011C14.5524 3.00016 15.0002 3.44786 15.0002 4.00011V7.58605L20.2931 2.29308Z" fill="white"/>
</svg>
