<svg width="24" height="24" viewBox="0 0 24 24" fill="none" xmlns="http://www.w3.org/2000/svg">
<path fill-rule="evenodd" clip-rule="evenodd" d="M18 1C20.2091 1 22 2.79086 22 5C22 7.20914 20.2091 9 18 9C16.8882 9 15.8831 8.54567 15.1582 7.81348L9.84863 10.9121C9.94625 11.2581 10 11.6227 10 12C10 12.3765 9.94685 12.7405 9.84961 13.0859L15.1611 16.1816C15.8858 15.4517 16.8902 15 18 15C20.2091 15 22 16.7909 22 19C22 21.2091 20.2091 23 18 23C15.7909 23 14 21.2091 14 19C14 18.6214 14.0531 18.2553 14.1514 17.9082L8.84082 14.8135C8.11591 15.5454 7.11153 16 6 16C3.79086 16 2 14.2091 2 12C2 9.79086 3.79086 8 6 8C7.11103 8 8.11598 8.45324 8.84082 9.18457L14.1504 6.08691C14.053 5.74124 14 5.37683 14 5C14 2.79086 15.7909 1 18 1ZM18 17C17.3046 17 16.6924 17.355 16.334 17.8936C16.3191 17.9272 16.3031 17.9607 16.2842 17.9932C16.265 18.026 16.2438 18.0571 16.2217 18.0869C16.0808 18.3608 16 18.6708 16 19C16 20.1046 16.8954 21 18 21C19.1046 21 20 20.1046 20 19C20 17.8954 19.1046 17 18 17ZM6 10C4.89543 10 4 10.8954 4 12C4 13.1046 4.89543 14 6 14C6.73268 14 7.37041 13.6043 7.71875 13.0166C7.72082 13.013 7.72347 13.0095 7.72559 13.0059C7.7312 12.9962 7.73728 12.9869 7.74316 12.9775C7.90572 12.6883 8 12.3554 8 12C8 10.8954 7.10457 10 6 10ZM18 3C16.8954 3 16 3.89543 16 5C16 6.10457 16.8954 7 18 7C19.1046 7 20 6.10457 20 5C20 3.89543 19.1046 3 18 3Z" fill="white"/>
</svg>
