<svg width="24" height="24" viewBox="0 0 24 24" fill="none" xmlns="http://www.w3.org/2000/svg">
<path d="M3 3C3.55228 3 4 3.44772 4 4V20C4 20.5523 3.55228 21 3 21C2.44772 21 2 20.5523 2 20V4C2 3.44772 2.44772 3 3 3Z" fill="white"/>
<path d="M18.9746 4C19.3285 3.99553 19.6774 4.08538 19.9854 4.25977C20.2933 4.43415 20.5493 4.68742 20.7275 4.99316C20.9057 5.29887 21 5.64616 21 6V18C21 18.3538 20.9057 18.7011 20.7275 19.0068C20.5493 19.3126 20.2933 19.5659 19.9854 19.7402C19.6774 19.9146 19.3285 20.0045 18.9746 20C18.6207 19.9955 18.2742 19.8969 17.9707 19.7148L7.97363 13.7168C7.67711 13.5396 7.43141 13.2886 7.26074 12.9883C7.09002 12.6877 7.00032 12.3476 7 12.002C6.9997 11.6563 7.08867 11.3165 7.25879 11.0156C7.42896 10.7148 7.67435 10.463 7.9707 10.2852L17.9707 4.28516C18.2742 4.10308 18.6207 4.00449 18.9746 4Z" fill="white"/>
</svg>
