<svg width="24" height="24" viewBox="0 0 24 24" fill="none" xmlns="http://www.w3.org/2000/svg">
<path fill-rule="evenodd" clip-rule="evenodd" d="M20.0796 2.08094C20.3336 1.99242 20.6068 1.9755 20.8696 2.03406C21.1377 2.09388 21.3834 2.22854 21.5776 2.42274C21.7232 2.56844 21.8355 2.74317 21.9077 2.93446L21.9673 3.13074L21.9975 3.33289C22.0129 3.53111 21.9852 3.73077 21.9194 3.91981L21.9214 3.92078L16.0717 21.0184C15.9758 21.2981 15.7964 21.5427 15.5581 21.7177C15.3196 21.8926 15.0325 21.9913 14.7368 21.9989C14.4412 22.0064 14.1498 21.923 13.9028 21.7606C13.6867 21.6185 13.5127 21.4211 13.3989 21.1903L13.354 21.0888L10.4926 13.952L10.4594 13.8788C10.4219 13.8073 10.3732 13.7417 10.3159 13.6845C10.2395 13.6083 10.1484 13.5478 10.0483 13.5077L2.91159 10.6464C2.63716 10.5363 2.40229 10.3445 2.23972 10.0975C2.07724 9.85052 1.99398 9.55912 2.00144 9.26356L2.00925 9.1532C2.0354 8.89693 2.12952 8.65104 2.28269 8.44227C2.45769 8.20393 2.70221 8.02451 2.98191 7.9286L20.0796 2.07899V2.08094ZM12.3032 13.1093C12.3175 13.1413 12.335 13.1723 12.3481 13.205L12.3491 13.2059L14.6587 18.9686L18.9292 6.48426L12.3032 13.1093ZM5.03073 9.3407L10.7925 11.6513C10.8258 11.6646 10.8564 11.6816 10.8891 11.6962L17.5171 5.06824L5.03073 9.3407Z" fill="white"/>
</svg>
