<svg width="24" height="24" viewBox="0 0 24 24" fill="none" xmlns="http://www.w3.org/2000/svg">
<path fill-rule="evenodd" clip-rule="evenodd" d="M17.6006 3C18.1526 3.0003 18.6006 3.4479 18.6006 4C18.6006 4.5521 18.1526 4.9997 17.6006 5H17V7.33789C16.9999 7.94114 16.7902 8.52283 16.4111 8.98535L16.2383 9.17578L13.4141 12L16.2383 14.8242L16.4111 15.0146C16.7902 15.4772 16.9999 16.0589 17 16.6621V19H17.6006C18.1526 19.0003 18.6006 19.4479 18.6006 20C18.6006 20.5521 18.1526 20.9997 17.6006 21H6.40039C5.84811 21 5.40039 20.5523 5.40039 20C5.40039 19.4477 5.84811 19 6.40039 19H7V16.6621C7.00017 15.9727 7.27421 15.3117 7.76172 14.8242L10.5859 12L7.76172 9.17578C7.27421 8.68833 7.00017 8.0273 7 7.33789V5H6.40039C5.84811 5 5.40039 4.55228 5.40039 4C5.40039 3.44772 5.84811 3 6.40039 3H17.6006ZM9.17578 16.2383C9.06325 16.3508 9.00004 16.504 9 16.6631V19H15V16.6631L14.9883 16.5449C14.9652 16.4297 14.9086 16.3226 14.8242 16.2383L12 13.4141L9.17578 16.2383ZM9 5V7.33691C9.00003 7.49603 9.06325 7.64922 9.17578 7.76172L12 10.5859L14.8242 7.76172C14.9366 7.64934 14.9998 7.49682 15 7.33789V5H9Z" fill="white"/>
</svg>
