<svg width="24" height="24" viewBox="0 0 24 24" fill="none" xmlns="http://www.w3.org/2000/svg">
<path d="M20 12.5147H4.92674V19.1026C4.92674 19.3404 5.02134 19.5691 5.18943 19.7373C5.35765 19.9055 5.5863 20 5.8242 20H19.1025C19.3404 20 19.5691 19.9055 19.7373 19.7373C19.9055 19.5691 20 19.3404 20 19.1026V12.5147ZM4.5908 7.82618C4.20756 7.94309 3.89832 8.4014 4.03025 8.94435L4.53709 10.2959L8.17283 9.23829L6.58103 7.23536L4.5908 7.82618ZM8.64842 6.62306L10.248 8.63575L14.0713 7.52443L12.4912 5.48439L8.64842 6.62306ZM18.5244 4.59376C18.4072 4.20341 17.9359 3.8883 17.3808 4.03614L14.5488 4.87501L16.1357 6.92384L18.9863 6.09571L18.5263 4.6006L18.5244 4.59376ZM22 19.1026C22 19.8709 21.6946 20.6081 21.1513 21.1514C20.6081 21.6947 19.8708 22 19.1025 22H5.8242C5.05587 22 4.31866 21.6947 3.77537 21.1514C3.2322 20.6081 2.92674 19.8708 2.92674 19.1026V11.6943L2.1367 9.58986C2.12589 9.56103 2.11648 9.53166 2.10838 9.50196C1.69146 7.97326 2.51451 6.36069 4.01951 5.90919L4.02244 5.90821L12.3398 3.44337C12.4826 3.35994 12.6392 3.31477 12.7969 3.30763L16.8271 2.11427L16.8476 2.10841C18.3742 1.69209 19.9843 2.51181 20.4385 4.01271L21.1972 6.47853C21.276 6.73453 21.2482 7.01133 21.1211 7.24708C20.9939 7.4828 20.7776 7.6576 20.5205 7.73243L16.2851 8.9629C16.1395 9.04788 15.9801 9.09297 15.8193 9.09864L10.9512 10.5147H21C21.5521 10.5147 21.9997 10.9626 22 11.5147V19.1026Z" fill="white"/>
</svg>
